<svg width="1209" height="849" viewBox="0 0 1209 849" fill="none" xmlns="http://www.w3.org/2000/svg">
<path d="M0 0H1209V849H0V0Z" fill="#B9DEEE"/>
<g clip-path="url(#clip0_0_1)">
<mask id="mask0_0_1" style="mask-type:luminance" maskUnits="userSpaceOnUse" x="0" y="0" width="1209" height="849">
<path d="M0 0H1209V849H0V0Z" fill="white"/>
</mask>
<g mask="url(#mask0_0_1)">
<path fill-rule="evenodd" clip-rule="evenodd" d="M0 0H1209V849H0V0Z" fill="#ABD8FF"/>
<path fill-rule="evenodd" clip-rule="evenodd" d="M-178.725 645.057C-148.231 522.994 60.9582 464.431 288.513 514.253C516.067 564.075 675.816 703.416 645.322 825.479C614.828 947.542 405.639 1006.1 178.084 956.283C-49.4702 906.461 -209.219 767.12 -178.725 645.057Z" fill="#85D062"/>
<path fill-rule="evenodd" clip-rule="evenodd" d="M349.955 837.949C319.888 697.425 522.702 540.883 802.953 488.302C1083.2 435.722 1334.77 507.013 1364.83 647.536C1394.9 788.06 1192.09 944.602 911.834 997.182C631.583 1049.76 380.021 978.472 349.955 837.949Z" fill="#85D062"/>
<path fill-rule="evenodd" clip-rule="evenodd" d="M68.9703 195.448C66.5002 177.014 74.6099 158.766 89.8581 148.446C105.106 138.127 124.819 137.546 140.631 146.951C146.232 136.233 156.484 128.832 168.285 126.989C180.086 125.145 192.051 129.074 200.56 137.588C205.332 127.87 214.701 121.341 225.342 120.317C235.984 119.294 246.392 123.921 252.874 132.556C261.494 122.255 275.209 117.918 288.084 121.422C300.96 124.925 310.683 135.639 313.046 148.929C323.608 151.854 332.405 159.291 337.165 169.318C341.926 179.345 342.182 190.978 337.869 201.212C348.268 214.958 350.701 233.273 344.259 249.324C337.817 265.374 323.468 276.749 306.566 279.202C306.447 294.266 298.312 308.089 285.296 315.342C272.28 322.596 256.416 322.147 243.818 314.169C238.453 332.211 223.35 345.486 205.034 348.259C186.719 351.032 168.475 342.806 158.185 327.134C145.571 334.859 130.435 337.084 116.191 333.308C101.948 329.532 89.7968 320.072 82.4792 307.064C69.5891 308.595 57.1261 301.813 51.2756 290.084C45.4251 278.354 47.4326 264.173 56.3016 254.579C44.8033 247.706 38.9362 234.069 41.7597 220.778C44.5832 207.487 55.4576 197.554 68.7123 196.16L68.9703 195.448Z" fill="#DFF1FC"/>
<path fill-rule="evenodd" clip-rule="evenodd" d="M50.4019 175.164C47.9319 156.73 56.0416 138.482 71.2898 128.163C86.538 117.843 106.25 117.263 122.063 126.667C127.664 115.949 137.915 108.549 149.717 106.705C161.518 104.861 173.483 108.791 181.992 117.304C186.763 107.587 196.132 101.057 206.774 100.034C217.415 99.0103 227.824 103.637 234.305 112.272C242.926 101.972 256.641 97.6347 269.516 101.138C282.391 104.641 292.114 115.356 294.478 128.645C305.039 131.571 313.837 139.008 318.597 149.034C323.357 159.061 323.614 170.695 319.3 180.929C329.7 194.674 332.133 212.99 325.691 229.04C319.249 245.091 304.899 256.465 287.998 258.919C287.879 273.983 279.744 287.805 266.728 295.059C253.712 302.312 237.848 301.863 225.25 293.886C219.884 311.928 204.781 325.203 186.466 327.976C168.151 330.748 149.907 322.522 139.616 306.851C127.002 314.575 111.866 316.8 97.6228 313.024C83.3795 309.248 71.2284 299.789 63.9108 286.78C51.0207 288.312 38.5578 281.53 32.7073 269.8C26.8568 258.07 28.8642 243.889 37.7333 234.295C26.235 227.423 20.3678 213.785 23.1913 200.494C26.0149 187.203 36.8892 177.271 50.1439 175.876L50.4019 175.164Z" fill="white"/>
<path fill-rule="evenodd" clip-rule="evenodd" d="M483.561 134.462C480.574 117.223 490.38 100.156 508.816 90.5052C527.253 80.8542 551.087 80.3111 570.205 89.1063C576.978 79.0824 589.373 72.1616 603.642 70.4372C617.911 68.7129 632.378 72.3877 642.666 80.3499C648.435 71.2616 659.763 65.1554 672.63 64.1981C685.496 63.2408 698.081 67.568 705.918 75.644C716.341 66.0104 732.924 61.9543 748.491 65.2307C764.059 68.5071 775.815 78.5276 778.673 90.9563C791.442 93.6923 802.079 100.648 807.835 110.025C813.591 119.403 813.901 130.282 808.685 139.854C821.26 152.709 824.201 169.838 816.412 184.849C808.623 199.86 791.273 210.498 770.838 212.792C770.694 226.881 760.857 239.808 745.12 246.592C729.382 253.375 710.201 252.956 694.969 245.495C688.482 262.368 670.221 274.783 648.076 277.377C625.931 279.97 603.872 272.276 591.43 257.62C576.178 264.844 557.877 266.925 540.655 263.394C523.434 259.862 508.742 251.015 499.894 238.849C484.309 240.282 469.24 233.939 462.166 222.969C455.092 211.999 457.519 198.736 468.243 189.764C454.34 183.336 447.246 170.582 450.66 158.152C454.074 145.722 467.223 136.433 483.249 135.128L483.561 134.462Z" fill="#DFF1FC"/>
<path fill-rule="evenodd" clip-rule="evenodd" d="M448.141 112.353C445.155 95.1136 454.96 78.0473 473.397 68.3962C491.833 58.7452 515.668 58.2021 534.786 66.9973C541.558 56.9734 553.953 50.0526 568.222 48.3283C582.491 46.604 596.958 50.2787 607.246 58.2409C613.016 49.1526 624.343 43.0464 637.21 42.0891C650.077 41.1318 662.662 45.459 670.499 53.535C680.921 43.9014 697.504 39.8453 713.072 43.1217C728.639 46.3981 740.395 56.4187 743.253 68.8474C756.023 71.5833 766.66 78.5386 772.415 87.9161C778.171 97.2936 778.481 108.173 773.266 117.745C785.84 130.6 788.782 147.729 780.993 162.74C773.203 177.751 755.854 188.389 735.418 190.683C735.274 204.772 725.438 217.699 709.7 224.483C693.963 231.266 674.781 230.847 659.55 223.386C653.062 240.259 634.801 252.674 612.656 255.268C590.511 257.861 568.453 250.167 556.01 235.511C540.758 242.735 522.458 244.816 505.236 241.285C488.014 237.753 473.323 228.906 464.475 216.74C448.889 218.173 433.82 211.83 426.747 200.86C419.673 189.89 422.1 176.627 432.824 167.655C418.921 161.227 411.827 148.473 415.241 136.043C418.655 123.613 431.803 114.324 447.829 113.019L448.141 112.353Z" fill="#FBFBFB"/>
<path fill-rule="evenodd" clip-rule="evenodd" d="M1132.17 380.989C1130.71 398.418 1118.63 413.495 1101.06 419.823C1083.49 426.151 1063.52 422.62 1049.61 410.728C1041.67 419.411 1029.76 424.09 1017.48 423.349C1005.2 422.608 993.998 416.535 987.254 406.966C980.366 414.902 969.532 418.963 958.596 417.709C947.66 416.454 938.17 410.062 933.493 400.799C922.605 408.477 907.864 409.63 895.648 403.76C883.433 397.89 875.938 386.051 876.407 373.366C866.398 368.503 859.133 359.864 856.488 349.679C853.843 339.494 856.078 328.764 862.615 320.26C855.088 305.499 856.564 288.187 866.492 274.783C876.419 261.379 893.307 253.897 910.853 255.13C914.202 241.328 925.357 230.318 940.02 226.344C954.682 222.37 970.561 226.052 981.537 235.972C990.808 220.518 1008.86 211.447 1027.9 212.678C1046.94 213.909 1063.55 225.221 1070.55 241.727C1084.91 237.237 1100.63 238.315 1114.17 244.718C1127.7 251.12 1137.91 262.308 1142.49 275.757C1155.8 277.008 1166.9 285.802 1170.27 297.775C1173.65 309.748 1168.59 322.35 1157.6 329.327C1167.71 338.006 1170.69 351.732 1165 363.349C1159.31 374.966 1146.23 381.841 1132.58 380.389L1132.17 380.989Z" fill="#DFF1FC"/>
<path fill-rule="evenodd" clip-rule="evenodd" d="M1110.97 358.702C1109.5 376.131 1097.42 391.208 1079.86 397.536C1062.29 403.864 1042.31 400.333 1028.41 388.441C1020.47 397.124 1008.56 401.803 996.28 401.062C984 400.321 972.793 394.248 966.049 384.679C959.161 392.615 948.327 396.676 937.391 395.422C926.455 394.167 916.965 387.775 912.289 378.512C901.4 386.19 886.659 387.343 874.444 381.473C862.229 375.603 854.734 363.764 855.202 351.079C845.193 346.216 837.928 337.577 835.283 327.392C832.638 317.207 834.873 306.477 841.411 297.973C833.884 283.212 835.359 265.9 845.287 252.496C855.214 239.092 872.102 231.61 889.649 232.843C892.997 219.04 904.152 208.031 918.815 204.056C933.477 200.082 949.356 203.765 960.333 213.684C969.603 198.231 987.658 189.16 1006.7 190.391C1025.73 191.622 1042.34 202.934 1049.35 219.439C1063.71 214.95 1079.43 216.028 1092.96 222.431C1106.49 228.833 1116.7 240.021 1121.28 253.469C1134.59 254.721 1145.69 263.515 1149.07 275.488C1152.45 287.46 1147.39 300.063 1136.4 307.04C1146.5 315.718 1149.49 329.445 1143.8 341.062C1138.11 352.679 1125.03 359.554 1111.38 358.102L1110.97 358.702Z" fill="#FBFBFB"/>
</g>
<path d="M56.8792 623C62.4863 623 66.7804 637.157 68.9249 646.051C69.585 648.789 66.67 650.841 64.253 649.396L57.6176 645.43C56.5082 644.766 55.1128 644.816 54.0531 645.556L48.6323 649.342C46.1751 651.058 43.0032 648.887 43.8406 646.009C46.5296 636.768 51.4475 623 56.8792 623Z" fill="#FECE15"/>
<path d="M103.322 656.746C104.842 662.189 92.5122 670.194 84.6077 674.689C82.1632 676.08 79.4021 673.855 80.1206 671.133L82.1342 663.506C82.4603 662.27 82.0442 660.961 81.067 660.146L75.8953 655.835C73.6031 653.924 74.8552 650.293 77.8419 650.326C87.3877 650.432 101.849 651.474 103.322 656.746Z" fill="#FECE15"/>
<path d="M97.9841 691.151C95.1087 696.005 80.8692 692.465 72.2005 689.76C69.5222 688.924 69.2364 685.367 71.6934 684.022L78.5506 680.268C79.6683 679.656 80.3291 678.445 80.2441 677.165L79.7974 670.435C79.5985 667.439 83.0732 665.851 85.0997 668.061C91.5826 675.13 100.77 686.448 97.9841 691.151Z" fill="#FECE15"/>
<path d="M68.9305 712.363C63.5868 714.075 55.2467 701.895 50.5339 694.073C49.0827 691.665 51.2401 688.817 53.9756 689.456L61.5007 691.212C62.7549 691.505 64.0669 691.033 64.8535 690.006L68.891 684.733C70.7171 682.348 74.3879 683.452 74.4533 686.452C74.6632 696.081 74.1073 710.704 68.9305 712.363Z" fill="#FECE15"/>
<path d="M30.8902 705.304C26.3404 701.999 31.0519 687.983 34.4623 679.5C35.5138 676.885 39.0605 676.92 40.1827 679.511L43.2869 686.68C43.7998 687.865 44.9509 688.64 46.2317 688.664L52.8666 688.787C55.8492 688.843 57.1454 692.473 54.795 694.318C47.2609 700.232 35.298 708.505 30.8902 705.304Z" fill="#FECE15"/>
<path d="M12.9902 686.05C10.5141 680.978 21.1969 670.843 28.1589 664.972C30.3107 663.157 33.4264 664.845 33.2104 667.655L32.6067 675.51C32.5085 676.788 33.1558 678.003 34.266 678.626L40.1155 681.909C42.7157 683.369 42.1453 687.172 39.2042 687.688C29.7988 689.336 15.3892 690.965 12.9902 686.05Z" fill="#FECE15"/>
<path d="M9.77786 658.66C10.0714 653.014 24.2961 649.43 33.2133 647.735C35.9721 647.21 37.8804 650.208 36.334 652.552L31.9935 659.13C31.2923 660.192 31.2692 661.565 31.9344 662.652L35.4635 668.418C37.0251 670.97 34.6812 673.998 31.8623 672.998C22.8561 669.805 9.49347 664.131 9.77786 658.66Z" fill="#FECE15"/>
<path d="M22.328 631.758C25.7905 627.31 39.4715 632.644 47.7301 636.436C50.2801 637.607 50.1105 641.175 47.5022 642.196L40.2417 645.037C39.0534 645.502 38.2433 646.622 38.1665 647.905L37.7647 654.623C37.5852 657.622 33.9381 658.76 32.2068 656.31C26.6647 648.469 18.9734 636.066 22.328 631.758Z" fill="#FECE15"/>
<path d="M84.9989 629.239C89.7255 632.281 85.801 646.543 82.868 655.205C81.9639 657.875 78.4194 658.038 77.1544 655.514L73.659 648.538C73.0804 647.383 71.8865 646.673 70.6052 646.722L63.9804 646.974C60.9986 647.088 59.4993 643.537 61.7427 641.562C68.9358 635.231 80.4198 626.293 84.9989 629.239Z" fill="#FECE15"/>
<path d="M85.3068 667C85.3068 682.464 71.9932 695 55.5701 695C39.1469 695 25.8333 682.464 25.8333 667C25.8333 651.536 39.1469 639 55.5701 639C71.9932 639 85.3068 651.536 85.3068 667Z" fill="#FECE15"/>
<path d="M73.4121 667C73.4121 675.837 65.424 683 55.5701 683C45.7162 683 37.728 675.837 37.728 667C37.728 658.163 45.7162 651 55.5701 651C65.424 651 73.4121 658.163 73.4121 667Z" fill="#C2A639"/>
<path d="M211.879 732C217.486 732 221.78 746.157 223.925 755.051C224.585 757.789 221.67 759.841 219.253 758.396L212.618 754.43C211.508 753.766 210.113 753.816 209.053 754.556L203.632 758.342C201.175 760.058 198.003 757.887 198.841 755.009C201.53 745.768 206.447 732 211.879 732Z" fill="#FECE15"/>
<path d="M258.322 765.746C259.842 771.189 247.512 779.194 239.608 783.689C237.163 785.08 234.402 782.855 235.121 780.133L237.134 772.506C237.46 771.27 237.044 769.961 236.067 769.146L230.895 764.835C228.603 762.924 229.855 759.293 232.842 759.326C242.388 759.432 256.849 760.474 258.322 765.746Z" fill="#FECE15"/>
<path d="M252.984 800.151C250.109 805.005 235.869 801.465 227.2 798.76C224.522 797.924 224.236 794.367 226.693 793.022L233.551 789.268C234.668 788.656 235.329 787.445 235.244 786.165L234.797 779.435C234.598 776.439 238.073 774.851 240.1 777.061C246.583 784.13 255.77 795.448 252.984 800.151Z" fill="#FECE15"/>
<path d="M223.93 821.363C218.587 823.075 210.247 810.895 205.534 803.073C204.083 800.665 206.24 797.817 208.975 798.456L216.501 800.212C217.755 800.505 219.067 800.033 219.853 799.006L223.891 793.733C225.717 791.348 229.388 792.452 229.453 795.452C229.663 805.081 229.107 819.704 223.93 821.363Z" fill="#FECE15"/>
<path d="M185.89 814.304C181.34 810.999 186.052 796.983 189.462 788.5C190.514 785.885 194.06 785.92 195.183 788.511L198.287 795.68C198.8 796.865 199.951 797.64 201.232 797.664L207.867 797.787C210.849 797.843 212.145 801.473 209.795 803.318C202.261 809.232 190.298 817.505 185.89 814.304Z" fill="#FECE15"/>
<path d="M167.99 795.05C165.514 789.978 176.197 779.843 183.159 773.972C185.311 772.157 188.426 773.845 188.21 776.655L187.607 784.51C187.508 785.788 188.156 787.003 189.266 787.626L195.115 790.909C197.716 792.369 197.145 796.172 194.204 796.688C184.799 798.336 170.389 799.965 167.99 795.05Z" fill="#FECE15"/>
<path d="M164.778 767.66C165.071 762.014 179.296 758.43 188.213 756.735C190.972 756.21 192.88 759.208 191.334 761.552L186.993 768.13C186.292 769.192 186.269 770.565 186.934 771.652L190.463 777.418C192.025 779.97 189.681 782.998 186.862 781.998C177.856 778.805 164.493 773.131 164.778 767.66Z" fill="#FECE15"/>
<path d="M177.328 740.758C180.79 736.31 194.471 741.644 202.73 745.436C205.28 746.607 205.11 750.175 202.502 751.196L195.242 754.037C194.053 754.502 193.243 755.622 193.166 756.905L192.765 763.623C192.585 766.622 188.938 767.76 187.207 765.31C181.665 757.469 173.973 745.066 177.328 740.758Z" fill="#FECE15"/>
<path d="M239.999 738.239C244.725 741.281 240.801 755.543 237.868 764.205C236.964 766.875 233.419 767.038 232.154 764.514L228.659 757.538C228.08 756.383 226.886 755.673 225.605 755.722L218.98 755.974C215.999 756.088 214.499 752.537 216.743 750.562C223.936 744.231 235.42 735.293 239.999 738.239Z" fill="#FECE15"/>
<path d="M240.307 776C240.307 791.464 226.993 804 210.57 804C194.147 804 180.833 791.464 180.833 776C180.833 760.536 194.147 748 210.57 748C226.993 748 240.307 760.536 240.307 776Z" fill="#FECE15"/>
<path d="M228.412 776C228.412 784.837 220.424 792 210.57 792C200.716 792 192.728 784.837 192.728 776C192.728 767.163 200.716 760 210.57 760C220.424 760 228.412 767.163 228.412 776Z" fill="#C2A639"/>
<path d="M653.879 710C659.486 710 663.78 724.157 665.925 733.051C666.585 735.789 663.67 737.841 661.253 736.396L654.618 732.43C653.508 731.766 652.113 731.816 651.053 732.556L645.632 736.342C643.175 738.058 640.003 735.887 640.841 733.009C643.53 723.768 648.447 710 653.879 710Z" fill="#FECE15"/>
<path d="M700.322 743.746C701.842 749.189 689.512 757.194 681.608 761.689C679.163 763.08 676.402 760.855 677.121 758.133L679.134 750.506C679.46 749.27 679.044 747.961 678.067 747.146L672.895 742.835C670.603 740.924 671.855 737.293 674.842 737.326C684.388 737.432 698.85 738.474 700.322 743.746Z" fill="#FECE15"/>
<path d="M694.984 778.151C692.109 783.005 677.869 779.465 669.2 776.76C666.522 775.924 666.236 772.367 668.693 771.022L675.551 767.268C676.668 766.656 677.329 765.445 677.244 764.165L676.797 757.435C676.598 754.439 680.073 752.851 682.1 755.061C688.583 762.13 697.77 773.448 694.984 778.151Z" fill="#FECE15"/>
<path d="M665.93 799.363C660.587 801.075 652.247 788.895 647.534 781.073C646.083 778.665 648.24 775.817 650.976 776.456L658.501 778.212C659.755 778.505 661.067 778.033 661.853 777.006L665.891 771.733C667.717 769.348 671.388 770.452 671.453 773.452C671.663 783.081 671.107 797.704 665.93 799.363Z" fill="#FECE15"/>
<path d="M627.89 792.304C623.34 788.999 628.052 774.983 631.462 766.5C632.514 763.885 636.061 763.92 637.183 766.511L640.287 773.68C640.8 774.865 641.951 775.64 643.232 775.664L649.867 775.787C652.849 775.843 654.145 779.473 651.795 781.318C644.261 787.232 632.298 795.505 627.89 792.304Z" fill="#FECE15"/>
<path d="M609.99 773.05C607.514 767.978 618.197 757.843 625.159 751.972C627.311 750.157 630.426 751.845 630.21 754.655L629.607 762.51C629.509 763.788 630.156 765.003 631.266 765.626L637.116 768.909C639.716 770.369 639.145 774.172 636.204 774.688C626.799 776.336 612.389 777.965 609.99 773.05Z" fill="#FECE15"/>
<path d="M606.778 745.66C607.071 740.014 621.296 736.43 630.213 734.735C632.972 734.21 634.88 737.208 633.334 739.552L628.993 746.13C628.292 747.192 628.269 748.565 628.934 749.652L632.463 755.418C634.025 757.97 631.681 760.998 628.862 759.998C619.856 756.805 606.493 751.131 606.778 745.66Z" fill="#FECE15"/>
<path d="M619.328 718.758C622.79 714.31 636.471 719.644 644.73 723.436C647.28 724.607 647.111 728.175 644.502 729.196L637.242 732.037C636.053 732.502 635.243 733.622 635.166 734.905L634.765 741.623C634.585 744.622 630.938 745.76 629.207 743.31C623.665 735.469 615.973 723.066 619.328 718.758Z" fill="#FECE15"/>
<path d="M681.999 716.239C686.725 719.281 682.801 733.543 679.868 742.205C678.964 744.875 675.419 745.038 674.154 742.514L670.659 735.538C670.08 734.383 668.886 733.673 667.605 733.722L660.98 733.974C657.999 734.088 656.499 730.537 658.743 728.562C665.936 722.231 677.42 713.293 681.999 716.239Z" fill="#FECE15"/>
<path d="M682.307 754C682.307 769.464 668.993 782 652.57 782C636.147 782 622.833 769.464 622.833 754C622.833 738.536 636.147 726 652.57 726C668.993 726 682.307 738.536 682.307 754Z" fill="#FECE15"/>
<path d="M670.412 754C670.412 762.837 662.424 770 652.57 770C642.716 770 634.728 762.837 634.728 754C634.728 745.163 642.716 738 652.57 738C662.424 738 670.412 745.163 670.412 754Z" fill="#C2A639"/>
<path d="M1003.88 743C1009.49 743 1013.78 757.157 1015.92 766.051C1016.58 768.789 1013.67 770.841 1011.25 769.396L1004.62 765.43C1003.51 764.766 1002.11 764.816 1001.05 765.556L995.632 769.342C993.175 771.058 990.003 768.887 990.841 766.009C993.53 756.768 998.447 743 1003.88 743Z" fill="#FECE15"/>
<path d="M1050.32 776.746C1051.84 782.189 1039.51 790.194 1031.61 794.689C1029.16 796.08 1026.4 793.855 1027.12 791.133L1029.13 783.506C1029.46 782.27 1029.04 780.961 1028.07 780.146L1022.9 775.835C1020.6 773.924 1021.86 770.293 1024.84 770.326C1034.39 770.432 1048.85 771.474 1050.32 776.746Z" fill="#FECE15"/>
<path d="M1044.98 811.151C1042.11 816.005 1027.87 812.465 1019.2 809.76C1016.52 808.924 1016.24 805.367 1018.69 804.022L1025.55 800.268C1026.67 799.656 1027.33 798.445 1027.24 797.165L1026.8 790.435C1026.6 787.439 1030.07 785.851 1032.1 788.061C1038.58 795.13 1047.77 806.448 1044.98 811.151Z" fill="#FECE15"/>
<path d="M1015.93 832.363C1010.59 834.075 1002.25 821.895 997.534 814.073C996.083 811.665 998.24 808.817 1000.98 809.456L1008.5 811.212C1009.75 811.505 1011.07 811.033 1011.85 810.006L1015.89 804.733C1017.72 802.348 1021.39 803.452 1021.45 806.452C1021.66 816.081 1021.11 830.704 1015.93 832.363Z" fill="#FECE15"/>
<path d="M977.89 825.304C973.34 821.999 978.052 807.983 981.462 799.5C982.514 796.885 986.061 796.92 987.183 799.511L990.287 806.68C990.8 807.865 991.951 808.64 993.232 808.664L999.867 808.787C1002.85 808.843 1004.15 812.473 1001.79 814.318C994.261 820.232 982.298 828.505 977.89 825.304Z" fill="#FECE15"/>
<path d="M959.99 806.05C957.514 800.978 968.197 790.843 975.159 784.972C977.311 783.157 980.426 784.845 980.21 787.655L979.607 795.51C979.508 796.788 980.156 798.003 981.266 798.626L987.115 801.909C989.716 803.369 989.145 807.172 986.204 807.688C976.799 809.336 962.389 810.965 959.99 806.05Z" fill="#FECE15"/>
<path d="M956.778 778.66C957.071 773.014 971.296 769.43 980.213 767.735C982.972 767.21 984.88 770.208 983.334 772.552L978.993 779.13C978.292 780.192 978.269 781.565 978.934 782.652L982.463 788.418C984.025 790.97 981.681 793.998 978.862 792.998C969.856 789.805 956.493 784.131 956.778 778.66Z" fill="#FECE15"/>
<path d="M969.328 751.758C972.79 747.31 986.471 752.644 994.73 756.436C997.28 757.607 997.111 761.175 994.502 762.196L987.242 765.037C986.053 765.502 985.243 766.622 985.166 767.905L984.765 774.623C984.585 777.622 980.938 778.76 979.207 776.31C973.665 768.469 965.973 756.066 969.328 751.758Z" fill="#FECE15"/>
<path d="M1032 749.239C1036.73 752.281 1032.8 766.543 1029.87 775.205C1028.96 777.875 1025.42 778.038 1024.15 775.514L1020.66 768.538C1020.08 767.383 1018.89 766.673 1017.61 766.722L1010.98 766.974C1008 767.088 1006.5 763.537 1008.74 761.562C1015.94 755.231 1027.42 746.293 1032 749.239Z" fill="#FECE15"/>
<path d="M1032.31 787C1032.31 802.464 1018.99 815 1002.57 815C986.147 815 972.833 802.464 972.833 787C972.833 771.536 986.147 759 1002.57 759C1018.99 759 1032.31 771.536 1032.31 787Z" fill="#FECE15"/>
<path d="M1020.41 787C1020.41 795.837 1012.42 803 1002.57 803C992.716 803 984.728 795.837 984.728 787C984.728 778.163 992.716 771 1002.57 771C1012.42 771 1020.41 778.163 1020.41 787Z" fill="#C2A639"/>
<path d="M1003.88 743C1009.49 743 1013.78 757.157 1015.92 766.051C1016.58 768.789 1013.67 770.841 1011.25 769.396L1004.62 765.43C1003.51 764.766 1002.11 764.816 1001.05 765.556L995.632 769.342C993.175 771.058 990.003 768.887 990.841 766.009C993.53 756.768 998.447 743 1003.88 743Z" fill="#FECE15"/>
<path d="M1050.32 776.746C1051.84 782.189 1039.51 790.194 1031.61 794.689C1029.16 796.08 1026.4 793.855 1027.12 791.133L1029.13 783.506C1029.46 782.27 1029.04 780.961 1028.07 780.146L1022.9 775.835C1020.6 773.924 1021.86 770.293 1024.84 770.326C1034.39 770.432 1048.85 771.474 1050.32 776.746Z" fill="#FECE15"/>
<path d="M1044.98 811.151C1042.11 816.005 1027.87 812.465 1019.2 809.76C1016.52 808.924 1016.24 805.367 1018.69 804.022L1025.55 800.268C1026.67 799.656 1027.33 798.445 1027.24 797.165L1026.8 790.435C1026.6 787.439 1030.07 785.851 1032.1 788.061C1038.58 795.13 1047.77 806.448 1044.98 811.151Z" fill="#FECE15"/>
<path d="M1015.93 832.363C1010.59 834.075 1002.25 821.895 997.534 814.073C996.083 811.665 998.24 808.817 1000.98 809.456L1008.5 811.212C1009.75 811.505 1011.07 811.033 1011.85 810.006L1015.89 804.733C1017.72 802.348 1021.39 803.452 1021.45 806.452C1021.66 816.081 1021.11 830.704 1015.93 832.363Z" fill="#FECE15"/>
<path d="M977.89 825.304C973.34 821.999 978.052 807.983 981.462 799.5C982.514 796.885 986.061 796.92 987.183 799.511L990.287 806.68C990.8 807.865 991.951 808.64 993.232 808.664L999.867 808.787C1002.85 808.843 1004.15 812.473 1001.79 814.318C994.261 820.232 982.298 828.505 977.89 825.304Z" fill="#FECE15"/>
<path d="M959.99 806.05C957.514 800.978 968.197 790.843 975.159 784.972C977.311 783.157 980.426 784.845 980.21 787.655L979.607 795.51C979.508 796.788 980.156 798.003 981.266 798.626L987.115 801.909C989.716 803.369 989.145 807.172 986.204 807.688C976.799 809.336 962.389 810.965 959.99 806.05Z" fill="#FECE15"/>
<path d="M956.778 778.66C957.071 773.014 971.296 769.43 980.213 767.735C982.972 767.21 984.88 770.208 983.334 772.552L978.993 779.13C978.292 780.192 978.269 781.565 978.934 782.652L982.463 788.418C984.025 790.97 981.681 793.998 978.862 792.998C969.856 789.805 956.493 784.131 956.778 778.66Z" fill="#FECE15"/>
<path d="M969.328 751.758C972.79 747.31 986.471 752.644 994.73 756.436C997.28 757.607 997.111 761.175 994.502 762.196L987.242 765.037C986.053 765.502 985.243 766.622 985.166 767.905L984.765 774.623C984.585 777.622 980.938 778.76 979.207 776.31C973.665 768.469 965.973 756.066 969.328 751.758Z" fill="#FECE15"/>
<path d="M1032 749.239C1036.73 752.281 1032.8 766.543 1029.87 775.205C1028.96 777.875 1025.42 778.038 1024.15 775.514L1020.66 768.538C1020.08 767.383 1018.89 766.673 1017.61 766.722L1010.98 766.974C1008 767.088 1006.5 763.537 1008.74 761.562C1015.94 755.231 1027.42 746.293 1032 749.239Z" fill="#FECE15"/>
<path d="M1032.31 787C1032.31 802.464 1018.99 815 1002.57 815C986.147 815 972.833 802.464 972.833 787C972.833 771.536 986.147 759 1002.57 759C1018.99 759 1032.31 771.536 1032.31 787Z" fill="#FECE15"/>
<path d="M1020.41 787C1020.41 795.837 1012.42 803 1002.57 803C992.716 803 984.728 795.837 984.728 787C984.728 778.163 992.716 771 1002.57 771C1012.42 771 1020.41 778.163 1020.41 787Z" fill="#C2A639"/>
<path d="M1026.88 510C1032.49 510 1036.78 524.157 1038.92 533.051C1039.58 535.789 1036.67 537.841 1034.25 536.396L1027.62 532.43C1026.51 531.766 1025.11 531.816 1024.05 532.556L1018.63 536.342C1016.18 538.058 1013 535.887 1013.84 533.009C1016.53 523.768 1021.45 510 1026.88 510Z" fill="#FECE15"/>
<path d="M1073.32 543.746C1074.84 549.189 1062.51 557.194 1054.61 561.689C1052.16 563.08 1049.4 560.855 1050.12 558.133L1052.13 550.506C1052.46 549.27 1052.04 547.961 1051.07 547.146L1045.9 542.835C1043.6 540.924 1044.86 537.293 1047.84 537.326C1057.39 537.432 1071.85 538.474 1073.32 543.746Z" fill="#FECE15"/>
<path d="M1067.98 578.151C1065.11 583.005 1050.87 579.465 1042.2 576.76C1039.52 575.924 1039.24 572.367 1041.69 571.022L1048.55 567.268C1049.67 566.656 1050.33 565.445 1050.24 564.165L1049.8 557.435C1049.6 554.439 1053.07 552.851 1055.1 555.061C1061.58 562.13 1070.77 573.448 1067.98 578.151Z" fill="#FECE15"/>
<path d="M1038.93 599.363C1033.59 601.075 1025.25 588.895 1020.53 581.073C1019.08 578.665 1021.24 575.817 1023.98 576.456L1031.5 578.212C1032.75 578.505 1034.07 578.033 1034.85 577.006L1038.89 571.733C1040.72 569.348 1044.39 570.452 1044.45 573.452C1044.66 583.081 1044.11 597.704 1038.93 599.363Z" fill="#FECE15"/>
<path d="M1000.89 592.304C996.34 588.999 1001.05 574.983 1004.46 566.5C1005.51 563.885 1009.06 563.92 1010.18 566.511L1013.29 573.68C1013.8 574.865 1014.95 575.64 1016.23 575.664L1022.87 575.787C1025.85 575.843 1027.15 579.472 1024.79 581.318C1017.26 587.232 1005.3 595.505 1000.89 592.304Z" fill="#FECE15"/>
<path d="M982.99 573.05C980.514 567.978 991.197 557.843 998.159 551.972C1000.31 550.157 1003.43 551.845 1003.21 554.655L1002.61 562.51C1002.51 563.788 1003.16 565.003 1004.27 565.626L1010.12 568.909C1012.72 570.369 1012.15 574.172 1009.2 574.688C999.799 576.336 985.389 577.965 982.99 573.05Z" fill="#FECE15"/>
<path d="M979.778 545.66C980.071 540.014 994.296 536.43 1003.21 534.734C1005.97 534.21 1007.88 537.208 1006.33 539.552L1001.99 546.13C1001.29 547.192 1001.27 548.565 1001.93 549.652L1005.46 555.418C1007.03 557.97 1004.68 560.998 1001.86 559.998C992.856 556.805 979.493 551.131 979.778 545.66Z" fill="#FECE15"/>
<path d="M992.328 518.758C995.79 514.31 1009.47 519.644 1017.73 523.436C1020.28 524.607 1020.11 528.175 1017.5 529.196L1010.24 532.037C1009.05 532.502 1008.24 533.622 1008.17 534.905L1007.76 541.623C1007.59 544.622 1003.94 545.76 1002.21 543.31C996.665 535.469 988.973 523.066 992.328 518.758Z" fill="#FECE15"/>
<path d="M1055 516.239C1059.73 519.281 1055.8 533.543 1052.87 542.205C1051.96 544.875 1048.42 545.038 1047.15 542.514L1043.66 535.538C1043.08 534.383 1041.89 533.673 1040.61 533.722L1033.98 533.974C1031 534.088 1029.5 530.537 1031.74 528.562C1038.94 522.231 1050.42 513.292 1055 516.239Z" fill="#FECE15"/>
<path d="M1055.31 554C1055.31 569.464 1041.99 582 1025.57 582C1009.15 582 995.833 569.464 995.833 554C995.833 538.536 1009.15 526 1025.57 526C1041.99 526 1055.31 538.536 1055.31 554Z" fill="#FECE15"/>
<path d="M1043.41 554C1043.41 562.837 1035.42 570 1025.57 570C1015.72 570 1007.73 562.837 1007.73 554C1007.73 545.163 1015.72 538 1025.57 538C1035.42 538 1043.41 545.163 1043.41 554Z" fill="#C2A639"/>
<path d="M477.879 634C483.486 634 487.78 648.157 489.925 657.051C490.585 659.789 487.67 661.841 485.253 660.396L478.618 656.43C477.508 655.766 476.113 655.816 475.053 656.556L469.632 660.342C467.175 662.058 464.003 659.887 464.841 657.009C467.53 647.768 472.447 634 477.879 634Z" fill="#FECE15"/>
<path d="M524.322 667.746C525.842 673.189 513.512 681.194 505.608 685.689C503.163 687.08 500.402 684.855 501.121 682.133L503.134 674.506C503.46 673.27 503.044 671.961 502.067 671.146L496.895 666.835C494.603 664.924 495.855 661.293 498.842 661.326C508.388 661.432 522.849 662.474 524.322 667.746Z" fill="#FECE15"/>
<path d="M518.984 702.151C516.109 707.005 501.869 703.465 493.2 700.76C490.522 699.924 490.236 696.367 492.693 695.022L499.551 691.268C500.668 690.656 501.329 689.445 501.244 688.165L500.797 681.435C500.598 678.439 504.073 676.851 506.1 679.061C512.583 686.13 521.77 697.448 518.984 702.151Z" fill="#FECE15"/>
<path d="M489.93 723.363C484.587 725.075 476.247 712.895 471.534 705.073C470.083 702.665 472.24 699.817 474.975 700.456L482.501 702.212C483.755 702.505 485.067 702.033 485.853 701.006L489.891 695.733C491.717 693.348 495.388 694.452 495.453 697.452C495.663 707.081 495.107 721.704 489.93 723.363Z" fill="#FECE15"/>
<path d="M451.89 716.304C447.34 712.999 452.052 698.983 455.462 690.5C456.514 687.885 460.06 687.92 461.183 690.511L464.287 697.68C464.8 698.865 465.951 699.64 467.232 699.664L473.867 699.787C476.849 699.843 478.145 703.473 475.795 705.318C468.261 711.232 456.298 719.505 451.89 716.304Z" fill="#FECE15"/>
<path d="M433.99 697.05C431.514 691.978 442.197 681.843 449.159 675.972C451.311 674.157 454.426 675.845 454.21 678.655L453.607 686.51C453.508 687.788 454.156 689.003 455.266 689.626L461.115 692.909C463.716 694.369 463.145 698.172 460.204 698.688C450.799 700.336 436.389 701.965 433.99 697.05Z" fill="#FECE15"/>
<path d="M430.778 669.66C431.071 664.014 445.296 660.43 454.213 658.735C456.972 658.21 458.88 661.208 457.334 663.552L452.993 670.13C452.292 671.192 452.269 672.565 452.934 673.652L456.463 679.418C458.025 681.97 455.681 684.998 452.862 683.998C443.856 680.805 430.493 675.131 430.778 669.66Z" fill="#FECE15"/>
<path d="M443.328 642.758C446.79 638.31 460.471 643.644 468.73 647.436C471.28 648.607 471.11 652.175 468.502 653.196L461.242 656.037C460.053 656.502 459.243 657.622 459.166 658.905L458.765 665.623C458.585 668.622 454.938 669.76 453.207 667.31C447.665 659.469 439.973 647.066 443.328 642.758Z" fill="#FECE15"/>
<path d="M505.999 640.239C510.725 643.281 506.801 657.543 503.868 666.205C502.964 668.875 499.419 669.038 498.154 666.514L494.659 659.538C494.08 658.383 492.886 657.673 491.605 657.722L484.98 657.974C481.999 658.088 480.499 654.537 482.743 652.562C489.936 646.231 501.42 637.293 505.999 640.239Z" fill="#FECE15"/>
<path d="M506.307 678C506.307 693.464 492.993 706 476.57 706C460.147 706 446.833 693.464 446.833 678C446.833 662.536 460.147 650 476.57 650C492.993 650 506.307 662.536 506.307 678Z" fill="#FECE15"/>
<path d="M494.412 678C494.412 686.837 486.424 694 476.57 694C466.716 694 458.728 686.837 458.728 678C458.728 669.163 466.716 662 476.57 662C486.424 662 494.412 669.163 494.412 678Z" fill="#C2A639"/>
<path d="M784.879 638C790.486 638 794.78 652.157 796.925 661.051C797.585 663.789 794.67 665.841 792.253 664.396L785.618 660.43C784.508 659.766 783.113 659.816 782.053 660.556L776.632 664.342C774.175 666.058 771.003 663.887 771.841 661.009C774.53 651.768 779.447 638 784.879 638Z" fill="#FECE15"/>
<path d="M831.322 671.746C832.842 677.189 820.512 685.194 812.608 689.689C810.163 691.08 807.402 688.855 808.121 686.133L810.134 678.506C810.46 677.27 810.044 675.961 809.067 675.146L803.895 670.835C801.603 668.924 802.855 665.293 805.842 665.326C815.388 665.432 829.85 666.474 831.322 671.746Z" fill="#FECE15"/>
<path d="M825.984 706.151C823.109 711.005 808.869 707.465 800.2 704.76C797.522 703.924 797.236 700.367 799.693 699.022L806.551 695.268C807.668 694.656 808.329 693.445 808.244 692.165L807.797 685.435C807.598 682.439 811.073 680.851 813.1 683.061C819.583 690.13 828.77 701.448 825.984 706.151Z" fill="#FECE15"/>
<path d="M796.93 727.363C791.587 729.075 783.247 716.895 778.534 709.073C777.083 706.665 779.24 703.817 781.976 704.456L789.501 706.212C790.755 706.505 792.067 706.033 792.853 705.006L796.891 699.733C798.717 697.348 802.388 698.452 802.453 701.452C802.663 711.081 802.107 725.704 796.93 727.363Z" fill="#FECE15"/>
<path d="M758.89 720.304C754.34 716.999 759.052 702.983 762.462 694.5C763.514 691.885 767.061 691.92 768.183 694.511L771.287 701.68C771.8 702.865 772.951 703.64 774.232 703.664L780.867 703.787C783.849 703.843 785.145 707.473 782.795 709.318C775.261 715.232 763.298 723.505 758.89 720.304Z" fill="#FECE15"/>
<path d="M740.99 701.05C738.514 695.978 749.197 685.843 756.159 679.972C758.311 678.157 761.426 679.845 761.21 682.655L760.607 690.51C760.508 691.788 761.156 693.003 762.266 693.626L768.115 696.909C770.716 698.369 770.145 702.172 767.204 702.688C757.799 704.336 743.389 705.965 740.99 701.05Z" fill="#FECE15"/>
<path d="M737.778 673.66C738.071 668.014 752.296 664.43 761.213 662.735C763.972 662.21 765.88 665.208 764.334 667.552L759.993 674.13C759.292 675.192 759.269 676.565 759.934 677.652L763.463 683.418C765.025 685.97 762.681 688.998 759.862 687.998C750.856 684.805 737.493 679.131 737.778 673.66Z" fill="#FECE15"/>
<path d="M750.328 646.758C753.79 642.31 767.471 647.644 775.73 651.436C778.28 652.607 778.111 656.175 775.502 657.196L768.242 660.037C767.053 660.502 766.243 661.622 766.166 662.905L765.765 669.623C765.585 672.622 761.938 673.76 760.207 671.31C754.665 663.469 746.973 651.066 750.328 646.758Z" fill="#FECE15"/>
<path d="M812.999 644.239C817.725 647.281 813.801 661.543 810.868 670.205C809.964 672.875 806.419 673.038 805.154 670.514L801.659 663.538C801.08 662.383 799.886 661.673 798.605 661.722L791.98 661.974C788.999 662.088 787.499 658.537 789.743 656.562C796.936 650.231 808.42 641.293 812.999 644.239Z" fill="#FECE15"/>
<path d="M813.307 682C813.307 697.464 799.993 710 783.57 710C767.147 710 753.833 697.464 753.833 682C753.833 666.536 767.147 654 783.57 654C799.993 654 813.307 666.536 813.307 682Z" fill="#FECE15"/>
<path d="M801.412 682C801.412 690.837 793.424 698 783.57 698C773.716 698 765.728 690.837 765.728 682C765.728 673.163 773.716 666 783.57 666C793.424 666 801.412 673.163 801.412 682Z" fill="#C2A639"/>
<path d="M1154.88 632C1160.49 632 1164.78 646.157 1166.92 655.051C1167.58 657.789 1164.67 659.841 1162.25 658.396L1155.62 654.43C1154.51 653.766 1153.11 653.816 1152.05 654.556L1146.63 658.342C1144.17 660.058 1141 657.887 1141.84 655.009C1144.53 645.768 1149.45 632 1154.88 632Z" fill="#FECE15"/>
<path d="M1201.32 665.746C1202.84 671.189 1190.51 679.194 1182.61 683.689C1180.16 685.08 1177.4 682.855 1178.12 680.133L1180.13 672.506C1180.46 671.27 1180.04 669.961 1179.07 669.146L1173.9 664.835C1171.6 662.924 1172.86 659.293 1175.84 659.326C1185.39 659.432 1199.85 660.474 1201.32 665.746Z" fill="#FECE15"/>
<path d="M1195.98 700.151C1193.11 705.005 1178.87 701.465 1170.2 698.76C1167.52 697.924 1167.24 694.367 1169.69 693.022L1176.55 689.268C1177.67 688.656 1178.33 687.445 1178.24 686.165L1177.8 679.435C1177.6 676.439 1181.07 674.851 1183.1 677.061C1189.58 684.13 1198.77 695.448 1195.98 700.151Z" fill="#FECE15"/>
<path d="M1166.93 721.363C1161.59 723.075 1153.25 710.895 1148.53 703.073C1147.08 700.665 1149.24 697.817 1151.98 698.456L1159.5 700.212C1160.75 700.505 1162.07 700.033 1162.85 699.006L1166.89 693.733C1168.72 691.348 1172.39 692.452 1172.45 695.452C1172.66 705.081 1172.11 719.704 1166.93 721.363Z" fill="#FECE15"/>
<path d="M1128.89 714.304C1124.34 710.999 1129.05 696.983 1132.46 688.5C1133.51 685.885 1137.06 685.92 1138.18 688.511L1141.29 695.68C1141.8 696.865 1142.95 697.64 1144.23 697.664L1150.87 697.787C1153.85 697.843 1155.15 701.473 1152.79 703.318C1145.26 709.232 1133.3 717.505 1128.89 714.304Z" fill="#FECE15"/>
<path d="M1110.99 695.05C1108.51 689.978 1119.2 679.843 1126.16 673.972C1128.31 672.157 1131.43 673.845 1131.21 676.655L1130.61 684.51C1130.51 685.788 1131.16 687.003 1132.27 687.626L1138.12 690.909C1140.72 692.369 1140.15 696.172 1137.2 696.688C1127.8 698.336 1113.39 699.965 1110.99 695.05Z" fill="#FECE15"/>
<path d="M1107.78 667.66C1108.07 662.014 1122.3 658.43 1131.21 656.735C1133.97 656.21 1135.88 659.208 1134.33 661.552L1129.99 668.13C1129.29 669.192 1129.27 670.565 1129.93 671.652L1133.46 677.418C1135.03 679.97 1132.68 682.998 1129.86 681.998C1120.86 678.805 1107.49 673.131 1107.78 667.66Z" fill="#FECE15"/>
<path d="M1120.33 640.758C1123.79 636.31 1137.47 641.644 1145.73 645.436C1148.28 646.607 1148.11 650.175 1145.5 651.196L1138.24 654.037C1137.05 654.502 1136.24 655.622 1136.17 656.905L1135.76 663.623C1135.59 666.622 1131.94 667.76 1130.21 665.31C1124.66 657.469 1116.97 645.066 1120.33 640.758Z" fill="#FECE15"/>
<path d="M1183 638.239C1187.73 641.281 1183.8 655.543 1180.87 664.205C1179.96 666.875 1176.42 667.038 1175.15 664.514L1171.66 657.538C1171.08 656.383 1169.89 655.673 1168.61 655.722L1161.98 655.974C1159 656.088 1157.5 652.537 1159.74 650.562C1166.94 644.231 1178.42 635.293 1183 638.239Z" fill="#FECE15"/>
<path d="M1183.31 676C1183.31 691.464 1169.99 704 1153.57 704C1137.15 704 1123.83 691.464 1123.83 676C1123.83 660.536 1137.15 648 1153.57 648C1169.99 648 1183.31 660.536 1183.31 676Z" fill="#FECE15"/>
<path d="M1171.41 676C1171.41 684.837 1163.42 692 1153.57 692C1143.72 692 1135.73 684.837 1135.73 676C1135.73 667.163 1143.72 660 1153.57 660C1163.42 660 1171.41 667.163 1171.41 676Z" fill="#C2A639"/>
<path d="M247.879 558C253.486 558 257.78 572.157 259.925 581.051C260.585 583.789 257.67 585.841 255.253 584.396L248.618 580.43C247.508 579.766 246.113 579.816 245.053 580.556L239.632 584.342C237.175 586.058 234.003 583.887 234.841 581.009C237.53 571.768 242.447 558 247.879 558Z" fill="#FECE15"/>
<path d="M294.322 591.746C295.842 597.189 283.512 605.194 275.608 609.689C273.163 611.08 270.402 608.855 271.121 606.133L273.134 598.506C273.46 597.27 273.044 595.961 272.067 595.146L266.895 590.835C264.603 588.924 265.855 585.293 268.842 585.326C278.388 585.432 292.849 586.474 294.322 591.746Z" fill="#FECE15"/>
<path d="M288.984 626.151C286.109 631.005 271.869 627.465 263.2 624.76C260.522 623.924 260.236 620.367 262.693 619.022L269.551 615.268C270.668 614.656 271.329 613.445 271.244 612.165L270.797 605.435C270.598 602.439 274.073 600.851 276.1 603.061C282.583 610.13 291.77 621.448 288.984 626.151Z" fill="#FECE15"/>
<path d="M259.93 647.363C254.587 649.075 246.247 636.895 241.534 629.073C240.083 626.665 242.24 623.817 244.975 624.456L252.501 626.212C253.755 626.505 255.067 626.033 255.853 625.006L259.891 619.733C261.717 617.348 265.388 618.452 265.453 621.452C265.663 631.081 265.107 645.704 259.93 647.363Z" fill="#FECE15"/>
<path d="M221.89 640.304C217.34 636.999 222.052 622.983 225.462 614.5C226.514 611.885 230.06 611.92 231.183 614.511L234.287 621.68C234.8 622.865 235.951 623.64 237.232 623.664L243.867 623.787C246.849 623.843 248.145 627.473 245.795 629.318C238.261 635.232 226.298 643.505 221.89 640.304Z" fill="#FECE15"/>
<path d="M203.99 621.05C201.514 615.978 212.197 605.843 219.159 599.972C221.311 598.157 224.426 599.845 224.21 602.655L223.607 610.51C223.508 611.788 224.156 613.003 225.266 613.626L231.115 616.909C233.716 618.369 233.145 622.172 230.204 622.688C220.799 624.336 206.389 625.965 203.99 621.05Z" fill="#FECE15"/>
<path d="M200.778 593.66C201.071 588.014 215.296 584.43 224.213 582.735C226.972 582.21 228.88 585.208 227.334 587.552L222.993 594.13C222.292 595.192 222.269 596.565 222.934 597.652L226.463 603.418C228.025 605.97 225.681 608.998 222.862 607.998C213.856 604.805 200.493 599.131 200.778 593.66Z" fill="#FECE15"/>
<path d="M213.328 566.758C216.79 562.31 230.471 567.644 238.73 571.436C241.28 572.607 241.11 576.175 238.502 577.196L231.242 580.037C230.053 580.502 229.243 581.622 229.166 582.905L228.765 589.623C228.585 592.622 224.938 593.76 223.207 591.31C217.665 583.469 209.973 571.066 213.328 566.758Z" fill="#FECE15"/>
<path d="M275.999 564.239C280.725 567.281 276.801 581.543 273.868 590.205C272.964 592.875 269.419 593.038 268.154 590.514L264.659 583.538C264.08 582.383 262.886 581.673 261.605 581.722L254.98 581.974C251.999 582.088 250.499 578.537 252.743 576.562C259.936 570.231 271.42 561.293 275.999 564.239Z" fill="#FECE15"/>
<path d="M276.307 602C276.307 617.464 262.993 630 246.57 630C230.147 630 216.833 617.464 216.833 602C216.833 586.536 230.147 574 246.57 574C262.993 574 276.307 586.536 276.307 602Z" fill="#FECE15"/>
<path d="M264.412 602C264.412 610.837 256.424 618 246.57 618C236.716 618 228.728 610.837 228.728 602C228.728 593.163 236.716 586 246.57 586C256.424 586 264.412 593.163 264.412 602Z" fill="#C2A639"/>
<path d="M81.3208 732C86.9825 732 91.3173 746.182 93.4789 755.075C94.1432 757.808 91.2389 759.866 88.8194 758.432L82.0377 754.413C80.9339 753.759 79.5502 753.808 78.4953 754.538L72.9363 758.387C70.475 760.091 67.3147 757.914 68.1574 755.041C70.8681 745.8 75.8346 732 81.3208 732Z" fill="#22BEFF"/>
<path d="M128.175 765.746C129.711 771.196 117.236 779.215 109.263 783.707C106.813 785.088 104.044 782.851 104.768 780.133L106.797 772.516C107.127 771.276 106.705 769.957 105.715 769.14L100.503 764.833C98.1957 762.926 99.4339 759.294 102.427 759.326C112.057 759.429 126.687 760.466 128.175 765.746Z" fill="#22BEFF"/>
<path d="M122.789 800.151C119.885 805.011 105.487 801.456 96.7452 798.75C94.0585 797.918 93.7819 794.37 96.2539 793.028L103.183 789.269C104.31 788.657 104.978 787.444 104.892 786.164L104.441 779.418C104.241 776.431 107.73 774.835 109.764 777.032C116.306 784.099 125.604 795.442 122.789 800.151Z" fill="#22BEFF"/>
<path d="M93.4787 821.363C88.0826 823.077 79.6581 810.873 74.906 803.051C73.4456 800.648 75.5906 797.807 78.3306 798.442L86.0106 800.219C87.2607 800.508 88.5647 800.043 89.349 799.027L93.4821 793.677C95.3122 791.307 98.9832 792.425 99.0497 795.418C99.2635 805.046 98.7074 819.702 93.4787 821.363Z" fill="#22BEFF"/>
<path d="M55.1016 814.304C50.5067 810.996 55.2748 796.954 58.7162 788.474C59.7738 785.868 63.3331 785.894 64.459 788.472L67.6148 795.695C68.1284 796.871 69.2799 797.64 70.5627 797.664L77.3228 797.788C80.3159 797.843 81.6088 801.456 79.2466 803.295C71.6475 809.211 59.554 817.509 55.1016 814.304Z" fill="#22BEFF"/>
<path d="M37.0432 795.05C34.542 789.971 45.3501 779.817 52.373 773.949C54.5313 772.146 57.6605 773.842 57.4431 776.646L56.8337 784.506C56.7345 785.785 57.3896 787.005 58.5109 787.628L64.4193 790.915C67.0354 792.371 66.4786 796.168 63.5292 796.681C54.0413 798.331 39.4668 799.972 37.0432 795.05Z" fill="#22BEFF"/>
<path d="M33.8024 767.661C34.0989 762.007 48.4886 758.42 57.4823 756.728C60.2462 756.207 62.1492 759.215 60.5906 761.556L56.2222 768.118C55.5112 769.186 55.4875 770.571 56.1616 771.662L59.7137 777.415C61.2865 779.963 58.947 783.005 56.1224 782.013C47.0361 778.822 33.5151 773.139 33.8024 767.661Z" fill="#22BEFF"/>
<path d="M46.4636 740.758C49.9609 736.305 63.7915 741.656 72.1201 745.45C74.6795 746.615 74.5039 750.17 71.8818 751.187L64.5324 754.038C63.3361 754.502 62.5199 755.621 62.4426 756.901L62.0353 763.65C61.855 766.638 58.1909 767.779 56.4523 765.342C50.8596 757.502 43.0748 745.072 46.4636 740.758Z" fill="#22BEFF"/>
<path d="M109.689 738.239C114.463 741.284 110.49 755.572 107.53 764.232C106.621 766.893 103.066 767.066 101.797 764.556L98.2405 757.521C97.6617 756.376 96.4689 755.673 95.1867 755.721L88.4304 755.976C85.4388 756.089 83.9452 752.554 86.2004 750.586C93.4554 744.253 105.064 735.289 109.689 738.239Z" fill="#22BEFF"/>
<path d="M110 776C110 791.464 96.5685 804 80 804C63.4315 804 50 791.464 50 776C50 760.536 63.4315 748 80 748C96.5685 748 110 760.536 110 776Z" fill="#22BEFF"/>
<path d="M98 776C98 784.837 89.9411 792 80 792C70.0589 792 62 784.837 62 776C62 767.163 70.0589 760 80 760C89.9411 760 98 767.163 98 776Z" fill="#19A3DD"/>
<path d="M81.3208 732C86.9825 732 91.3173 746.182 93.4789 755.075C94.1432 757.808 91.2389 759.866 88.8194 758.432L82.0377 754.413C80.9339 753.759 79.5502 753.808 78.4953 754.538L72.9363 758.387C70.475 760.091 67.3147 757.914 68.1574 755.041C70.8681 745.8 75.8346 732 81.3208 732Z" fill="#22BEFF"/>
<path d="M128.175 765.746C129.711 771.196 117.236 779.215 109.263 783.707C106.813 785.088 104.044 782.851 104.768 780.133L106.797 772.516C107.127 771.276 106.705 769.957 105.715 769.14L100.503 764.833C98.1957 762.926 99.4339 759.294 102.427 759.326C112.057 759.429 126.687 760.466 128.175 765.746Z" fill="#22BEFF"/>
<path d="M122.789 800.151C119.885 805.011 105.487 801.456 96.7452 798.75C94.0585 797.918 93.7819 794.37 96.2539 793.028L103.183 789.269C104.31 788.657 104.978 787.444 104.892 786.164L104.441 779.418C104.241 776.431 107.73 774.835 109.764 777.032C116.306 784.099 125.604 795.442 122.789 800.151Z" fill="#22BEFF"/>
<path d="M93.4787 821.363C88.0826 823.077 79.6581 810.873 74.906 803.051C73.4456 800.648 75.5906 797.807 78.3306 798.442L86.0106 800.219C87.2607 800.508 88.5647 800.043 89.349 799.027L93.4821 793.677C95.3122 791.307 98.9832 792.425 99.0497 795.418C99.2635 805.046 98.7074 819.702 93.4787 821.363Z" fill="#22BEFF"/>
<path d="M55.1016 814.304C50.5067 810.996 55.2748 796.954 58.7162 788.474C59.7738 785.868 63.3331 785.894 64.459 788.472L67.6148 795.695C68.1284 796.871 69.2799 797.64 70.5627 797.664L77.3228 797.788C80.3159 797.843 81.6088 801.456 79.2466 803.295C71.6475 809.211 59.554 817.509 55.1016 814.304Z" fill="#22BEFF"/>
<path d="M37.0432 795.05C34.542 789.971 45.3501 779.817 52.373 773.949C54.5313 772.146 57.6605 773.842 57.4431 776.646L56.8337 784.506C56.7345 785.785 57.3896 787.005 58.5109 787.628L64.4193 790.915C67.0354 792.371 66.4786 796.168 63.5292 796.681C54.0413 798.331 39.4668 799.972 37.0432 795.05Z" fill="#22BEFF"/>
<path d="M33.8024 767.661C34.0989 762.007 48.4886 758.42 57.4823 756.728C60.2462 756.207 62.1492 759.215 60.5906 761.556L56.2222 768.118C55.5112 769.186 55.4875 770.571 56.1616 771.662L59.7137 777.415C61.2865 779.963 58.947 783.005 56.1224 782.013C47.0361 778.822 33.5151 773.139 33.8024 767.661Z" fill="#22BEFF"/>
<path d="M46.4636 740.758C49.9609 736.305 63.7915 741.656 72.1201 745.45C74.6795 746.615 74.5039 750.17 71.8818 751.187L64.5324 754.038C63.3361 754.502 62.5199 755.621 62.4426 756.901L62.0353 763.65C61.855 766.638 58.1909 767.779 56.4523 765.342C50.8596 757.502 43.0748 745.072 46.4636 740.758Z" fill="#22BEFF"/>
<path d="M109.689 738.239C114.463 741.284 110.49 755.572 107.53 764.232C106.621 766.893 103.066 767.066 101.797 764.556L98.2405 757.521C97.6617 756.376 96.4689 755.673 95.1867 755.721L88.4304 755.976C85.4388 756.089 83.9452 752.554 86.2004 750.586C93.4554 744.253 105.064 735.289 109.689 738.239Z" fill="#22BEFF"/>
<path d="M110 776C110 791.464 96.5685 804 80 804C63.4315 804 50 791.464 50 776C50 760.536 63.4315 748 80 748C96.5685 748 110 760.536 110 776Z" fill="#22BEFF"/>
<path d="M98 776C98 784.837 89.9411 792 80 792C70.0589 792 62 784.837 62 776C62 767.163 70.0589 760 80 760C89.9411 760 98 767.163 98 776Z" fill="#19A3DD"/>
<path d="M811.321 540C816.982 540 821.317 554.182 823.479 563.075C824.143 565.808 821.239 567.866 818.819 566.432L812.038 562.413C810.934 561.759 809.55 561.808 808.495 562.538L802.936 566.387C800.475 568.091 797.315 565.914 798.157 563.041C800.868 553.8 805.835 540 811.321 540Z" fill="#22BEFF"/>
<path d="M858.175 573.746C859.711 579.196 847.236 587.215 839.263 591.707C836.813 593.088 834.044 590.851 834.768 588.133L836.797 580.516C837.127 579.276 836.705 577.957 835.715 577.14L830.503 572.833C828.196 570.926 829.434 567.294 832.427 567.326C842.057 567.429 856.687 568.466 858.175 573.746Z" fill="#22BEFF"/>
<path d="M852.789 608.151C849.885 613.011 835.488 609.456 826.745 606.75C824.059 605.918 823.782 602.37 826.254 601.028L833.183 597.269C834.31 596.657 834.978 595.444 834.892 594.164L834.441 587.418C834.241 584.431 837.73 582.835 839.764 585.032C846.306 592.099 855.604 603.442 852.789 608.151Z" fill="#22BEFF"/>
<path d="M823.479 629.363C818.083 631.077 809.658 618.873 804.906 611.051C803.446 608.648 805.591 605.807 808.331 606.442L816.011 608.219C817.261 608.508 818.565 608.043 819.349 607.027L823.482 601.677C825.312 599.307 828.983 600.426 829.05 603.418C829.263 613.046 828.707 627.702 823.479 629.363Z" fill="#22BEFF"/>
<path d="M785.102 622.304C780.507 618.996 785.275 604.954 788.716 596.474C789.774 593.868 793.333 593.894 794.459 596.472L797.615 603.695C798.128 604.871 799.28 605.64 800.563 605.664L807.323 605.788C810.316 605.843 811.609 609.456 809.247 611.295C801.647 617.211 789.554 625.509 785.102 622.304Z" fill="#22BEFF"/>
<path d="M767.043 603.05C764.542 597.971 775.35 587.817 782.373 581.949C784.531 580.146 787.66 581.842 787.443 584.646L786.834 592.506C786.735 593.785 787.39 595.005 788.511 595.628L794.419 598.915C797.035 600.371 796.479 604.168 793.529 604.681C784.041 606.331 769.467 607.972 767.043 603.05Z" fill="#22BEFF"/>
<path d="M763.802 575.66C764.099 570.007 778.489 566.42 787.482 564.728C790.246 564.207 792.149 567.215 790.591 569.556L786.222 576.118C785.511 577.186 785.487 578.571 786.162 579.662L789.714 585.415C791.286 587.963 788.947 591.005 786.122 590.013C777.036 586.822 763.515 581.139 763.802 575.66Z" fill="#22BEFF"/>
<path d="M776.464 548.758C779.961 544.305 793.792 549.656 802.12 553.45C804.68 554.615 804.504 558.17 801.882 559.187L794.532 562.038C793.336 562.502 792.52 563.621 792.443 564.901L792.035 571.65C791.855 574.638 788.191 575.779 786.452 573.342C780.86 565.502 773.075 553.072 776.464 548.758Z" fill="#22BEFF"/>
<path d="M839.689 546.239C844.463 549.284 840.49 563.572 837.53 572.232C836.621 574.893 833.066 575.066 831.797 572.556L828.241 565.521C827.662 564.376 826.469 563.673 825.187 563.721L818.43 563.976C815.439 564.089 813.945 560.554 816.2 558.586C823.455 552.253 835.064 543.289 839.689 546.239Z" fill="#22BEFF"/>
<path d="M840 584C840 599.464 826.569 612 810 612C793.431 612 780 599.464 780 584C780 568.536 793.431 556 810 556C826.569 556 840 568.536 840 584Z" fill="#22BEFF"/>
<path d="M828 584C828 592.837 819.941 600 810 600C800.059 600 792 592.837 792 584C792 575.163 800.059 568 810 568C819.941 568 828 575.163 828 584Z" fill="#19A3DD"/>
<path d="M129.321 527C134.983 527 139.317 541.182 141.479 550.075C142.143 552.808 139.239 554.866 136.819 553.432L130.038 549.413C128.934 548.759 127.55 548.808 126.495 549.538L120.936 553.387C118.475 555.091 115.315 552.914 116.157 550.041C118.868 540.8 123.835 527 129.321 527Z" fill="#22BEFF"/>
<path d="M176.175 560.746C177.711 566.196 165.236 574.215 157.263 578.707C154.813 580.088 152.044 577.851 152.768 575.133L154.797 567.516C155.127 566.276 154.705 564.957 153.715 564.14L148.503 559.833C146.196 557.926 147.434 554.294 150.427 554.326C160.057 554.429 174.687 555.466 176.175 560.746Z" fill="#22BEFF"/>
<path d="M170.789 595.151C167.885 600.011 153.487 596.456 144.745 593.75C142.059 592.918 141.782 589.37 144.254 588.028L151.183 584.269C152.31 583.657 152.978 582.444 152.892 581.164L152.441 574.418C152.241 571.431 155.73 569.835 157.764 572.032C164.306 579.099 173.604 590.442 170.789 595.151Z" fill="#22BEFF"/>
<path d="M141.479 616.363C136.083 618.077 127.658 605.873 122.906 598.051C121.446 595.648 123.591 592.807 126.331 593.442L134.011 595.219C135.261 595.508 136.565 595.043 137.349 594.027L141.482 588.677C143.312 586.307 146.983 587.426 147.05 590.418C147.263 600.046 146.707 614.702 141.479 616.363Z" fill="#22BEFF"/>
<path d="M103.102 609.304C98.5067 605.996 103.275 591.954 106.716 583.474C107.774 580.868 111.333 580.894 112.459 583.472L115.615 590.695C116.128 591.871 117.28 592.64 118.563 592.664L125.323 592.788C128.316 592.843 129.609 596.456 127.247 598.295C119.647 604.211 107.554 612.509 103.102 609.304Z" fill="#22BEFF"/>
<path d="M85.0432 590.05C82.542 584.971 93.3501 574.817 100.373 568.949C102.531 567.146 105.66 568.842 105.443 571.646L104.834 579.506C104.735 580.785 105.39 582.005 106.511 582.628L112.419 585.915C115.035 587.371 114.479 591.168 111.529 591.681C102.041 593.331 87.4668 594.972 85.0432 590.05Z" fill="#22BEFF"/>
<path d="M81.8024 562.66C82.0989 557.007 96.4886 553.42 105.482 551.728C108.246 551.207 110.149 554.215 108.591 556.556L104.222 563.118C103.511 564.186 103.488 565.571 104.162 566.662L107.714 572.415C109.286 574.963 106.947 578.005 104.122 577.013C95.0361 573.822 81.5151 568.139 81.8024 562.66Z" fill="#22BEFF"/>
<path d="M94.4636 535.758C97.9609 531.305 111.791 536.656 120.12 540.45C122.68 541.615 122.504 545.17 119.882 546.187L112.532 549.038C111.336 549.502 110.52 550.621 110.443 551.901L110.035 558.65C109.855 561.638 106.191 562.779 104.452 560.342C98.8596 552.502 91.0748 540.072 94.4636 535.758Z" fill="#22BEFF"/>
<path d="M157.689 533.239C162.463 536.284 158.49 550.572 155.53 559.232C154.621 561.893 151.066 562.066 149.797 559.556L146.241 552.521C145.662 551.376 144.469 550.673 143.187 550.721L136.43 550.976C133.439 551.089 131.945 547.554 134.2 545.586C141.455 539.253 153.064 530.289 157.689 533.239Z" fill="#22BEFF"/>
<path d="M158 571C158 586.464 144.569 599 128 599C111.431 599 98 586.464 98 571C98 555.536 111.431 543 128 543C144.569 543 158 555.536 158 571Z" fill="#22BEFF"/>
<path d="M146 571C146 579.837 137.941 587 128 587C118.059 587 110 579.837 110 571C110 562.163 118.059 555 128 555C137.941 555 146 562.163 146 571Z" fill="#19A3DD"/>
<path d="M381.321 581C386.983 581 391.317 595.182 393.479 604.075C394.143 606.808 391.239 608.866 388.819 607.432L382.038 603.413C380.934 602.759 379.55 602.808 378.495 603.538L372.936 607.387C370.475 609.091 367.315 606.914 368.157 604.041C370.868 594.8 375.835 581 381.321 581Z" fill="#22BEFF"/>
<path d="M428.175 614.746C429.711 620.196 417.236 628.215 409.263 632.707C406.813 634.088 404.044 631.851 404.768 629.133L406.797 621.516C407.127 620.276 406.705 618.957 405.715 618.14L400.503 613.833C398.196 611.926 399.434 608.294 402.427 608.326C412.057 608.429 426.687 609.466 428.175 614.746Z" fill="#22BEFF"/>
<path d="M422.789 649.151C419.885 654.011 405.487 650.456 396.745 647.75C394.059 646.918 393.782 643.37 396.254 642.028L403.183 638.269C404.31 637.657 404.978 636.444 404.892 635.164L404.441 628.418C404.241 625.431 407.73 623.835 409.764 626.032C416.306 633.099 425.604 644.442 422.789 649.151Z" fill="#22BEFF"/>
<path d="M393.479 670.363C388.083 672.077 379.658 659.873 374.906 652.051C373.446 649.648 375.591 646.807 378.331 647.442L386.011 649.219C387.261 649.508 388.565 649.043 389.349 648.027L393.482 642.677C395.312 640.307 398.983 641.426 399.05 644.418C399.263 654.046 398.707 668.702 393.479 670.363Z" fill="#22BEFF"/>
<path d="M355.102 663.304C350.507 659.996 355.275 645.954 358.716 637.474C359.774 634.868 363.333 634.894 364.459 637.472L367.615 644.695C368.128 645.871 369.28 646.64 370.563 646.664L377.323 646.788C380.316 646.843 381.609 650.456 379.247 652.295C371.647 658.211 359.554 666.509 355.102 663.304Z" fill="#22BEFF"/>
<path d="M337.043 644.05C334.542 638.971 345.35 628.817 352.373 622.949C354.531 621.146 357.66 622.842 357.443 625.646L356.834 633.506C356.735 634.785 357.39 636.005 358.511 636.628L364.419 639.915C367.035 641.371 366.479 645.168 363.529 645.681C354.041 647.331 339.467 648.972 337.043 644.05Z" fill="#22BEFF"/>
<path d="M333.802 616.66C334.099 611.007 348.489 607.42 357.482 605.728C360.246 605.207 362.149 608.215 360.591 610.556L356.222 617.118C355.511 618.186 355.488 619.571 356.162 620.662L359.714 626.415C361.286 628.963 358.947 632.005 356.122 631.013C347.036 627.822 333.515 622.139 333.802 616.66Z" fill="#22BEFF"/>
<path d="M346.464 589.758C349.961 585.305 363.791 590.656 372.12 594.45C374.68 595.615 374.504 599.17 371.882 600.187L364.532 603.038C363.336 603.502 362.52 604.621 362.443 605.901L362.035 612.65C361.855 615.638 358.191 616.779 356.452 614.342C350.86 606.502 343.075 594.072 346.464 589.758Z" fill="#22BEFF"/>
<path d="M409.689 587.239C414.463 590.284 410.49 604.572 407.53 613.232C406.621 615.893 403.066 616.066 401.797 613.556L398.241 606.521C397.662 605.376 396.469 604.673 395.187 604.721L388.43 604.976C385.439 605.089 383.945 601.554 386.2 599.586C393.455 593.253 405.064 584.289 409.689 587.239Z" fill="#22BEFF"/>
<path d="M410 625C410 640.464 396.569 653 380 653C363.431 653 350 640.464 350 625C350 609.536 363.431 597 380 597C396.569 597 410 609.536 410 625Z" fill="#22BEFF"/>
<path d="M398 625C398 633.837 389.941 641 380 641C370.059 641 362 633.837 362 625C362 616.163 370.059 609 380 609C389.941 609 398 616.163 398 625Z" fill="#19A3DD"/>
<path d="M408.321 741C413.983 741 418.317 755.182 420.479 764.075C421.143 766.808 418.239 768.866 415.819 767.432L409.038 763.413C407.934 762.759 406.55 762.808 405.495 763.538L399.936 767.387C397.475 769.091 394.315 766.914 395.157 764.041C397.868 754.8 402.835 741 408.321 741Z" fill="#22BEFF"/>
<path d="M455.175 774.746C456.711 780.196 444.236 788.215 436.263 792.707C433.813 794.088 431.044 791.851 431.768 789.133L433.797 781.516C434.127 780.276 433.705 778.957 432.715 778.14L427.503 773.833C425.196 771.926 426.434 768.294 429.427 768.326C439.057 768.429 453.687 769.466 455.175 774.746Z" fill="#22BEFF"/>
<path d="M449.789 809.151C446.885 814.011 432.487 810.456 423.745 807.75C421.059 806.918 420.782 803.37 423.254 802.028L430.183 798.269C431.31 797.657 431.978 796.444 431.892 795.164L431.441 788.418C431.241 785.431 434.73 783.835 436.764 786.032C443.306 793.099 452.604 804.442 449.789 809.151Z" fill="#22BEFF"/>
<path d="M420.479 830.363C415.083 832.077 406.658 819.873 401.906 812.051C400.446 809.648 402.591 806.807 405.331 807.442L413.011 809.219C414.261 809.508 415.565 809.043 416.349 808.027L420.482 802.677C422.312 800.307 425.983 801.425 426.05 804.418C426.263 814.046 425.707 828.702 420.479 830.363Z" fill="#22BEFF"/>
<path d="M382.102 823.304C377.507 819.996 382.275 805.954 385.716 797.474C386.774 794.868 390.333 794.894 391.459 797.472L394.615 804.695C395.128 805.871 396.28 806.64 397.563 806.664L404.323 806.788C407.316 806.843 408.609 810.456 406.247 812.295C398.647 818.211 386.554 826.509 382.102 823.304Z" fill="#22BEFF"/>
<path d="M364.043 804.05C361.542 798.971 372.35 788.817 379.373 782.949C381.531 781.146 384.66 782.842 384.443 785.646L383.834 793.506C383.735 794.785 384.39 796.005 385.511 796.628L391.419 799.915C394.035 801.371 393.479 805.168 390.529 805.681C381.041 807.331 366.467 808.972 364.043 804.05Z" fill="#22BEFF"/>
<path d="M360.802 776.661C361.099 771.007 375.489 767.42 384.482 765.728C387.246 765.207 389.149 768.215 387.591 770.556L383.222 777.118C382.511 778.186 382.488 779.571 383.162 780.662L386.714 786.415C388.286 788.963 385.947 792.005 383.122 791.013C374.036 787.822 360.515 782.139 360.802 776.661Z" fill="#22BEFF"/>
<path d="M373.464 749.758C376.961 745.305 390.791 750.656 399.12 754.45C401.68 755.615 401.504 759.17 398.882 760.187L391.532 763.038C390.336 763.502 389.52 764.621 389.443 765.901L389.035 772.65C388.855 775.638 385.191 776.779 383.452 774.342C377.86 766.502 370.075 754.072 373.464 749.758Z" fill="#22BEFF"/>
<path d="M436.689 747.239C441.463 750.284 437.49 764.572 434.53 773.232C433.621 775.893 430.066 776.066 428.797 773.556L425.241 766.521C424.662 765.376 423.469 764.673 422.187 764.721L415.43 764.976C412.439 765.089 410.945 761.554 413.2 759.586C420.455 753.253 432.064 744.289 436.689 747.239Z" fill="#22BEFF"/>
<path d="M437 785C437 800.464 423.569 813 407 813C390.431 813 377 800.464 377 785C377 769.536 390.431 757 407 757C423.569 757 437 769.536 437 785Z" fill="#22BEFF"/>
<path d="M425 785C425 793.837 416.941 801 407 801C397.059 801 389 793.837 389 785C389 776.163 397.059 769 407 769C416.941 769 425 776.163 425 785Z" fill="#19A3DD"/>
<path d="M927.321 614C932.982 614 937.317 628.182 939.479 637.075C940.143 639.808 937.239 641.866 934.819 640.432L928.038 636.413C926.934 635.759 925.55 635.808 924.495 636.538L918.936 640.387C916.475 642.091 913.315 639.914 914.157 637.041C916.868 627.8 921.835 614 927.321 614Z" fill="#22BEFF"/>
<path d="M974.175 647.746C975.711 653.196 963.236 661.215 955.263 665.707C952.813 667.088 950.044 664.851 950.768 662.133L952.797 654.516C953.127 653.276 952.705 651.957 951.715 651.14L946.503 646.833C944.196 644.926 945.434 641.294 948.427 641.326C958.057 641.429 972.687 642.466 974.175 647.746Z" fill="#22BEFF"/>
<path d="M968.789 682.151C965.885 687.011 951.488 683.456 942.745 680.75C940.059 679.918 939.782 676.37 942.254 675.028L949.183 671.269C950.31 670.657 950.978 669.444 950.892 668.164L950.441 661.418C950.241 658.431 953.73 656.835 955.764 659.032C962.306 666.099 971.604 677.442 968.789 682.151Z" fill="#22BEFF"/>
<path d="M939.479 703.363C934.083 705.077 925.658 692.873 920.906 685.051C919.446 682.648 921.591 679.807 924.331 680.442L932.011 682.219C933.261 682.508 934.565 682.043 935.349 681.027L939.482 675.677C941.312 673.307 944.983 674.426 945.05 677.418C945.263 687.046 944.707 701.702 939.479 703.363Z" fill="#22BEFF"/>
<path d="M901.102 696.304C896.507 692.996 901.275 678.954 904.716 670.474C905.774 667.868 909.333 667.894 910.459 670.472L913.615 677.695C914.128 678.871 915.28 679.64 916.563 679.664L923.323 679.788C926.316 679.843 927.609 683.456 925.247 685.295C917.647 691.211 905.554 699.509 901.102 696.304Z" fill="#22BEFF"/>
<path d="M883.043 677.05C880.542 671.971 891.35 661.817 898.373 655.949C900.531 654.146 903.66 655.842 903.443 658.646L902.834 666.506C902.735 667.785 903.39 669.005 904.511 669.628L910.419 672.915C913.035 674.371 912.479 678.168 909.529 678.681C900.041 680.331 885.467 681.972 883.043 677.05Z" fill="#22BEFF"/>
<path d="M879.802 649.66C880.099 644.007 894.489 640.42 903.482 638.728C906.246 638.207 908.149 641.215 906.591 643.556L902.222 650.118C901.511 651.186 901.487 652.571 902.162 653.662L905.714 659.415C907.286 661.963 904.947 665.005 902.122 664.013C893.036 660.822 879.515 655.139 879.802 649.66Z" fill="#22BEFF"/>
<path d="M892.464 622.758C895.961 618.305 909.792 623.656 918.12 627.45C920.68 628.615 920.504 632.17 917.882 633.187L910.532 636.038C909.336 636.502 908.52 637.621 908.443 638.901L908.035 645.65C907.855 648.638 904.191 649.779 902.452 647.342C896.86 639.502 889.075 627.072 892.464 622.758Z" fill="#22BEFF"/>
<path d="M955.689 620.239C960.463 623.284 956.49 637.572 953.53 646.232C952.621 648.893 949.066 649.066 947.797 646.556L944.241 639.521C943.662 638.376 942.469 637.673 941.187 637.721L934.43 637.976C931.439 638.089 929.945 634.554 932.2 632.586C939.455 626.253 951.064 617.289 955.689 620.239Z" fill="#22BEFF"/>
<path d="M956 658C956 673.464 942.569 686 926 686C909.431 686 896 673.464 896 658C896 642.536 909.431 630 926 630C942.569 630 956 642.536 956 658Z" fill="#22BEFF"/>
<path d="M944 658C944 666.837 935.941 674 926 674C916.059 674 908 666.837 908 658C908 649.163 916.059 642 926 642C935.941 642 944 649.163 944 658Z" fill="#19A3DD"/>
<path d="M595.321 605C600.983 605 605.317 619.182 607.479 628.075C608.143 630.808 605.239 632.866 602.819 631.432L596.038 627.413C594.934 626.759 593.55 626.808 592.495 627.538L586.936 631.387C584.475 633.091 581.315 630.914 582.157 628.041C584.868 618.8 589.835 605 595.321 605Z" fill="#22BEFF"/>
<path d="M642.175 638.746C643.711 644.196 631.236 652.215 623.263 656.707C620.813 658.088 618.044 655.851 618.768 653.133L620.797 645.516C621.127 644.276 620.705 642.957 619.715 642.14L614.503 637.833C612.196 635.926 613.434 632.294 616.427 632.326C626.057 632.429 640.687 633.466 642.175 638.746Z" fill="#22BEFF"/>
<path d="M636.789 673.151C633.885 678.011 619.487 674.456 610.745 671.75C608.059 670.918 607.782 667.37 610.254 666.028L617.183 662.269C618.31 661.657 618.978 660.444 618.892 659.164L618.441 652.418C618.241 649.431 621.73 647.835 623.764 650.032C630.306 657.099 639.604 668.442 636.789 673.151Z" fill="#22BEFF"/>
<path d="M607.479 694.363C602.083 696.077 593.658 683.873 588.906 676.051C587.446 673.648 589.591 670.807 592.331 671.442L600.011 673.219C601.261 673.508 602.565 673.043 603.349 672.027L607.482 666.677C609.312 664.307 612.983 665.426 613.05 668.418C613.263 678.046 612.707 692.702 607.479 694.363Z" fill="#22BEFF"/>
<path d="M569.102 687.304C564.507 683.996 569.275 669.954 572.716 661.474C573.774 658.868 577.333 658.894 578.459 661.472L581.615 668.695C582.128 669.871 583.28 670.64 584.563 670.664L591.323 670.788C594.316 670.843 595.609 674.456 593.247 676.295C585.647 682.211 573.554 690.509 569.102 687.304Z" fill="#22BEFF"/>
<path d="M551.043 668.05C548.542 662.971 559.35 652.817 566.373 646.949C568.531 645.146 571.66 646.842 571.443 649.646L570.834 657.506C570.734 658.785 571.39 660.005 572.511 660.628L578.419 663.915C581.035 665.371 580.479 669.168 577.529 669.681C568.041 671.331 553.467 672.972 551.043 668.05Z" fill="#22BEFF"/>
<path d="M547.802 640.66C548.099 635.007 562.489 631.42 571.482 629.728C574.246 629.207 576.149 632.215 574.591 634.556L570.222 641.118C569.511 642.186 569.487 643.571 570.162 644.662L573.714 650.415C575.286 652.963 572.947 656.005 570.122 655.013C561.036 651.822 547.515 646.139 547.802 640.66Z" fill="#22BEFF"/>
<path d="M560.464 613.758C563.961 609.305 577.792 614.656 586.12 618.45C588.68 619.615 588.504 623.17 585.882 624.187L578.532 627.038C577.336 627.502 576.52 628.621 576.443 629.901L576.035 636.65C575.855 639.638 572.191 640.779 570.452 638.342C564.86 630.502 557.075 618.072 560.464 613.758Z" fill="#22BEFF"/>
<path d="M623.689 611.239C628.463 614.284 624.49 628.572 621.53 637.232C620.621 639.893 617.066 640.066 615.797 637.556L612.241 630.521C611.662 629.376 610.469 628.673 609.187 628.721L602.43 628.976C599.439 629.089 597.945 625.554 600.2 623.586C607.455 617.253 619.064 608.289 623.689 611.239Z" fill="#22BEFF"/>
<path d="M624 649C624 664.464 610.569 677 594 677C577.431 677 564 664.464 564 649C564 633.536 577.431 621 594 621C610.569 621 624 633.536 624 649Z" fill="#22BEFF"/>
<path d="M612 649C612 657.837 603.941 665 594 665C584.059 665 576 657.837 576 649C576 640.163 584.059 633 594 633C603.941 633 612 640.163 612 649Z" fill="#19A3DD"/>
<path d="M784.321 744C789.982 744 794.317 758.182 796.479 767.075C797.143 769.808 794.239 771.866 791.819 770.432L785.038 766.413C783.934 765.759 782.55 765.808 781.495 766.538L775.936 770.387C773.475 772.091 770.315 769.914 771.157 767.041C773.868 757.8 778.835 744 784.321 744Z" fill="#22BEFF"/>
<path d="M831.175 777.746C832.711 783.196 820.236 791.215 812.263 795.707C809.813 797.088 807.044 794.851 807.768 792.133L809.797 784.516C810.127 783.276 809.705 781.957 808.715 781.14L803.503 776.833C801.196 774.926 802.434 771.294 805.427 771.326C815.057 771.429 829.687 772.466 831.175 777.746Z" fill="#22BEFF"/>
<path d="M825.789 812.151C822.885 817.011 808.488 813.456 799.745 810.75C797.059 809.918 796.782 806.37 799.254 805.028L806.183 801.269C807.31 800.657 807.978 799.444 807.892 798.164L807.441 791.418C807.241 788.431 810.73 786.835 812.764 789.032C819.306 796.099 828.604 807.442 825.789 812.151Z" fill="#22BEFF"/>
<path d="M796.479 833.363C791.083 835.077 782.658 822.873 777.906 815.051C776.446 812.648 778.591 809.807 781.331 810.442L789.011 812.219C790.261 812.508 791.565 812.043 792.349 811.027L796.482 805.677C798.312 803.307 801.983 804.425 802.05 807.418C802.263 817.046 801.707 831.702 796.479 833.363Z" fill="#22BEFF"/>
<path d="M758.102 826.304C753.507 822.996 758.275 808.954 761.716 800.474C762.774 797.868 766.333 797.894 767.459 800.472L770.615 807.695C771.128 808.871 772.28 809.64 773.563 809.664L780.323 809.788C783.316 809.843 784.609 813.456 782.247 815.295C774.647 821.211 762.554 829.509 758.102 826.304Z" fill="#22BEFF"/>
<path d="M740.043 807.05C737.542 801.971 748.35 791.817 755.373 785.949C757.531 784.146 760.66 785.842 760.443 788.646L759.834 796.506C759.735 797.785 760.39 799.005 761.511 799.628L767.419 802.915C770.035 804.371 769.479 808.168 766.529 808.681C757.041 810.331 742.467 811.972 740.043 807.05Z" fill="#22BEFF"/>
<path d="M736.802 779.661C737.099 774.007 751.489 770.42 760.482 768.728C763.246 768.207 765.149 771.215 763.591 773.556L759.222 780.118C758.511 781.186 758.487 782.571 759.162 783.662L762.714 789.415C764.286 791.963 761.947 795.005 759.122 794.013C750.036 790.822 736.515 785.139 736.802 779.661Z" fill="#22BEFF"/>
<path d="M749.464 752.758C752.961 748.305 766.792 753.656 775.12 757.45C777.68 758.615 777.504 762.17 774.882 763.187L767.532 766.038C766.336 766.502 765.52 767.621 765.443 768.901L765.035 775.65C764.855 778.638 761.191 779.779 759.452 777.342C753.86 769.502 746.075 757.072 749.464 752.758Z" fill="#22BEFF"/>
<path d="M812.689 750.239C817.463 753.284 813.49 767.572 810.53 776.232C809.621 778.893 806.066 779.066 804.797 776.556L801.241 769.521C800.662 768.376 799.469 767.673 798.187 767.721L791.43 767.976C788.439 768.089 786.945 764.554 789.2 762.586C796.455 756.253 808.064 747.289 812.689 750.239Z" fill="#22BEFF"/>
<path d="M813 788C813 803.464 799.569 816 783 816C766.431 816 753 803.464 753 788C753 772.536 766.431 760 783 760C799.569 760 813 772.536 813 788Z" fill="#22BEFF"/>
<path d="M813 788C813 803.464 799.569 816 783 816C766.431 816 753 803.464 753 788C753 772.536 766.431 760 783 760C799.569 760 813 772.536 813 788Z" fill="#22BEFF"/>
<path d="M801 788C801 796.837 792.941 804 783 804C773.059 804 765 796.837 765 788C765 779.163 773.059 772 783 772C792.941 772 801 779.163 801 788Z" fill="#19A3DD"/>
<path d="M1137.32 522C1142.98 522 1147.32 536.182 1149.48 545.075C1150.14 547.808 1147.24 549.866 1144.82 548.432L1138.04 544.413C1136.93 543.759 1135.55 543.808 1134.5 544.538L1128.94 548.387C1126.47 550.091 1123.31 547.914 1124.16 545.041C1126.87 535.8 1131.83 522 1137.32 522Z" fill="#22BEFF"/>
<path d="M1184.17 555.746C1185.71 561.196 1173.24 569.215 1165.26 573.707C1162.81 575.088 1160.04 572.851 1160.77 570.133L1162.8 562.516C1163.13 561.276 1162.7 559.957 1161.72 559.14L1156.5 554.833C1154.2 552.926 1155.43 549.294 1158.43 549.326C1168.06 549.429 1182.69 550.466 1184.17 555.746Z" fill="#22BEFF"/>
<path d="M1178.79 590.151C1175.88 595.011 1161.49 591.456 1152.75 588.75C1150.06 587.918 1149.78 584.37 1152.25 583.028L1159.18 579.269C1160.31 578.657 1160.98 577.444 1160.89 576.164L1160.44 569.418C1160.24 566.431 1163.73 564.835 1165.76 567.032C1172.31 574.099 1181.6 585.442 1178.79 590.151Z" fill="#22BEFF"/>
<path d="M1149.48 611.363C1144.08 613.077 1135.66 600.873 1130.91 593.051C1129.45 590.648 1131.59 587.807 1134.33 588.442L1142.01 590.219C1143.26 590.508 1144.56 590.043 1145.35 589.027L1149.48 583.677C1151.31 581.307 1154.98 582.426 1155.05 585.418C1155.26 595.046 1154.71 609.702 1149.48 611.363Z" fill="#22BEFF"/>
<path d="M1111.1 604.304C1106.51 600.996 1111.27 586.954 1114.72 578.474C1115.77 575.868 1119.33 575.894 1120.46 578.472L1123.61 585.695C1124.13 586.871 1125.28 587.64 1126.56 587.664L1133.32 587.788C1136.32 587.843 1137.61 591.456 1135.25 593.295C1127.65 599.211 1115.55 607.509 1111.1 604.304Z" fill="#22BEFF"/>
<path d="M1093.04 585.05C1090.54 579.971 1101.35 569.817 1108.37 563.949C1110.53 562.146 1113.66 563.842 1113.44 566.646L1112.83 574.506C1112.73 575.785 1113.39 577.005 1114.51 577.628L1120.42 580.915C1123.04 582.371 1122.48 586.168 1119.53 586.681C1110.04 588.331 1095.47 589.972 1093.04 585.05Z" fill="#22BEFF"/>
<path d="M1089.8 557.66C1090.1 552.007 1104.49 548.42 1113.48 546.728C1116.25 546.207 1118.15 549.215 1116.59 551.556L1112.22 558.118C1111.51 559.186 1111.49 560.571 1112.16 561.662L1115.71 567.415C1117.29 569.963 1114.95 573.005 1112.12 572.013C1103.04 568.822 1089.52 563.139 1089.8 557.66Z" fill="#22BEFF"/>
<path d="M1102.46 530.758C1105.96 526.305 1119.79 531.656 1128.12 535.45C1130.68 536.615 1130.5 540.17 1127.88 541.187L1120.53 544.038C1119.34 544.502 1118.52 545.621 1118.44 546.901L1118.04 553.65C1117.85 556.638 1114.19 557.779 1112.45 555.342C1106.86 547.502 1099.07 535.072 1102.46 530.758Z" fill="#22BEFF"/>
<path d="M1165.69 528.239C1170.46 531.284 1166.49 545.572 1163.53 554.232C1162.62 556.893 1159.07 557.066 1157.8 554.556L1154.24 547.521C1153.66 546.376 1152.47 545.673 1151.19 545.721L1144.43 545.976C1141.44 546.089 1139.95 542.554 1142.2 540.586C1149.46 534.253 1161.06 525.289 1165.69 528.239Z" fill="#22BEFF"/>
<path d="M1166 566C1166 581.464 1152.57 594 1136 594C1119.43 594 1106 581.464 1106 566C1106 550.536 1119.43 538 1136 538C1152.57 538 1166 550.536 1166 566Z" fill="#22BEFF"/>
<path d="M1166 566C1166 581.464 1152.57 594 1136 594C1119.43 594 1106 581.464 1106 566C1106 550.536 1119.43 538 1136 538C1152.57 538 1166 550.536 1166 566Z" fill="#22BEFF"/>
<path d="M1154 566C1154 574.837 1145.94 582 1136 582C1126.06 582 1118 574.837 1118 566C1118 557.163 1126.06 550 1136 550C1145.94 550 1154 557.163 1154 566Z" fill="#19A3DD"/>
<path d="M1123.32 732C1128.98 732 1133.32 746.182 1135.48 755.075C1136.14 757.808 1133.24 759.866 1130.82 758.432L1124.04 754.413C1122.93 753.759 1121.55 753.808 1120.5 754.538L1114.94 758.387C1112.47 760.091 1109.31 757.914 1110.16 755.041C1112.87 745.8 1117.83 732 1123.32 732Z" fill="#22BEFF"/>
<path d="M1170.17 765.746C1171.71 771.196 1159.24 779.215 1151.26 783.707C1148.81 785.088 1146.04 782.851 1146.77 780.133L1148.8 772.516C1149.13 771.276 1148.7 769.957 1147.72 769.14L1142.5 764.833C1140.2 762.926 1141.43 759.294 1144.43 759.326C1154.06 759.429 1168.69 760.466 1170.17 765.746Z" fill="#22BEFF"/>
<path d="M1164.79 800.151C1161.88 805.011 1147.49 801.456 1138.75 798.75C1136.06 797.918 1135.78 794.37 1138.25 793.028L1145.18 789.269C1146.31 788.657 1146.98 787.444 1146.89 786.164L1146.44 779.418C1146.24 776.431 1149.73 774.835 1151.76 777.032C1158.31 784.099 1167.6 795.442 1164.79 800.151Z" fill="#22BEFF"/>
<path d="M1135.48 821.363C1130.08 823.077 1121.66 810.873 1116.91 803.051C1115.45 800.648 1117.59 797.807 1120.33 798.442L1128.01 800.219C1129.26 800.508 1130.56 800.043 1131.35 799.027L1135.48 793.677C1137.31 791.307 1140.98 792.425 1141.05 795.418C1141.26 805.046 1140.71 819.702 1135.48 821.363Z" fill="#22BEFF"/>
<path d="M1097.1 814.304C1092.51 810.996 1097.27 796.954 1100.72 788.474C1101.77 785.868 1105.33 785.894 1106.46 788.472L1109.61 795.695C1110.13 796.871 1111.28 797.64 1112.56 797.664L1119.32 797.788C1122.32 797.843 1123.61 801.456 1121.25 803.295C1113.65 809.211 1101.55 817.509 1097.1 814.304Z" fill="#22BEFF"/>
<path d="M1079.04 795.05C1076.54 789.971 1087.35 779.817 1094.37 773.949C1096.53 772.146 1099.66 773.842 1099.44 776.646L1098.83 784.506C1098.73 785.785 1099.39 787.005 1100.51 787.628L1106.42 790.915C1109.04 792.371 1108.48 796.168 1105.53 796.681C1096.04 798.331 1081.47 799.972 1079.04 795.05Z" fill="#22BEFF"/>
<path d="M1075.8 767.661C1076.1 762.007 1090.49 758.42 1099.48 756.728C1102.25 756.207 1104.15 759.215 1102.59 761.556L1098.22 768.118C1097.51 769.186 1097.49 770.571 1098.16 771.662L1101.71 777.415C1103.29 779.963 1100.95 783.005 1098.12 782.013C1089.04 778.822 1075.52 773.139 1075.8 767.661Z" fill="#22BEFF"/>
<path d="M1088.46 740.758C1091.96 736.305 1105.79 741.656 1114.12 745.45C1116.68 746.615 1116.5 750.17 1113.88 751.187L1106.53 754.038C1105.34 754.502 1104.52 755.621 1104.44 756.901L1104.04 763.65C1103.85 766.638 1100.19 767.779 1098.45 765.342C1092.86 757.502 1085.07 745.072 1088.46 740.758Z" fill="#22BEFF"/>
<path d="M1151.69 738.239C1156.46 741.284 1152.49 755.572 1149.53 764.232C1148.62 766.893 1145.07 767.066 1143.8 764.556L1140.24 757.521C1139.66 756.376 1138.47 755.673 1137.19 755.721L1130.43 755.976C1127.44 756.089 1125.95 752.554 1128.2 750.586C1135.46 744.253 1147.06 735.289 1151.69 738.239Z" fill="#22BEFF"/>
<path d="M1152 776C1152 791.464 1138.57 804 1122 804C1105.43 804 1092 791.464 1092 776C1092 760.536 1105.43 748 1122 748C1138.57 748 1152 760.536 1152 776Z" fill="#22BEFF"/>
<path d="M1140 776C1140 784.837 1131.94 792 1122 792C1112.06 792 1104 784.837 1104 776C1104 767.163 1112.06 760 1122 760C1131.94 760 1140 767.163 1140 776Z" fill="#19A3DD"/>
<path d="M196.386 649.16C192.706 645.303 180.213 651.561 172.57 655.978C170.131 657.388 170.664 660.911 173.38 661.66L180.181 663.534C181.43 663.878 182.36 664.925 182.555 666.206L183.446 672.07C183.897 675.034 187.66 675.828 189.161 673.233C193.8 665.211 199.945 652.89 196.386 649.16Z" fill="#EC673C"/>
<path d="M142.08 639.319C137.33 641.855 139.824 655.487 141.918 663.99C142.591 666.72 146.1 667.18 147.575 664.781L151.378 658.6C152.047 657.514 153.278 656.911 154.539 657.054L160.59 657.738C163.553 658.073 165.306 654.656 163.217 652.524C156.801 645.975 146.676 636.867 142.08 639.319Z" fill="#EC673C"/>
<path d="M121.645 665.901C120.183 671.072 131.832 678.514 139.471 682.763C141.921 684.126 144.692 681.876 143.973 679.173L142.132 672.244C141.805 671.016 142.226 669.704 143.211 668.881L147.893 664.971C150.2 663.045 148.946 659.442 145.947 659.512C136.723 659.726 123.058 660.898 121.645 665.901Z" fill="#EC673C"/>
<path d="M126.124 700.192C128.449 704.995 142.207 702.789 150.803 700.877C153.548 700.266 154.114 696.737 151.764 695.201L145.861 691.342C144.781 690.637 144.217 689.358 144.42 688.077L145.352 682.182C145.822 679.212 142.488 677.322 140.276 679.352C133.44 685.621 123.875 695.548 126.124 700.192Z" fill="#EC673C"/>
<path d="M156.262 721.935C161.527 722.89 168.09 710.563 171.763 702.545C172.937 699.98 170.464 697.447 167.812 698.428L161.1 700.91C159.887 701.359 158.53 701.063 157.629 700.153L153.431 695.914C151.334 693.796 147.812 695.373 148.101 698.345C148.995 707.51 151.17 721.011 156.262 721.935Z" fill="#EC673C"/>
<path d="M181.545 721.575C186.669 719.94 186.702 706.051 186.194 697.291C186.031 694.48 182.666 693.396 180.78 695.494L175.936 700.879C175.08 701.831 173.756 702.203 172.542 701.832L166.748 700.063C163.899 699.193 161.548 702.24 163.208 704.719C168.312 712.339 176.589 723.156 181.545 721.575Z" fill="#EC673C"/>
<path d="M202.762 705.598C206.463 701.682 199.711 689.625 194.986 682.277C193.468 679.916 189.985 680.604 189.354 683.339L187.723 690.401C187.438 691.639 186.463 692.6 185.22 692.87L179.236 694.17C176.313 694.805 175.751 698.59 178.423 699.931C186.628 704.048 199.181 709.387 202.762 705.598Z" fill="#EC673C"/>
<path d="M213.189 678.992C213.984 673.685 201.466 667.79 193.339 664.55C190.734 663.511 188.27 666.098 189.328 668.688L192.03 675.299C192.512 676.478 192.259 677.836 191.382 678.779L187.24 683.231C185.191 685.433 186.888 688.85 189.856 688.401C198.992 687.019 212.42 684.126 213.189 678.992Z" fill="#EC673C"/>
<path d="M173.396 633.767C168.197 632.517 160.956 644.465 156.841 652.27C155.525 654.765 157.854 657.433 160.556 656.602L167.385 654.501C168.622 654.12 169.962 654.493 170.811 655.454L174.755 659.918C176.729 662.152 180.336 660.777 180.214 657.793C179.837 648.586 178.425 634.975 173.396 633.767Z" fill="#EC673C"/>
<path d="M146.878 658.655C136.102 668.936 136.193 686.521 147.081 697.934C157.968 709.347 175.53 710.265 186.306 699.985C197.082 689.705 196.992 672.119 186.104 660.706C175.217 649.293 157.655 648.375 146.878 658.655Z" fill="#EC673C"/>
<path d="M154.764 666.921C148.606 672.796 148.91 683.109 155.443 689.957C161.975 696.805 172.263 697.594 178.421 691.719C184.579 685.845 184.275 675.531 177.742 668.684C171.209 661.836 160.922 661.047 154.764 666.921Z" fill="#A65B42"/>
<path d="M560.386 741.16C556.706 737.303 544.213 743.561 536.57 747.978C534.131 749.388 534.664 752.911 537.38 753.66L544.181 755.534C545.43 755.878 546.36 756.925 546.555 758.206L547.446 764.07C547.897 767.034 551.66 767.828 553.161 765.233C557.8 757.211 563.945 744.89 560.386 741.16Z" fill="#EC673C"/>
<path d="M506.08 731.319C501.329 733.855 503.824 747.487 505.918 755.99C506.591 758.72 510.1 759.18 511.575 756.781L515.378 750.6C516.046 749.514 517.278 748.911 518.539 749.054L524.59 749.738C527.553 750.073 529.306 746.656 527.217 744.524C520.801 737.975 510.676 728.867 506.08 731.319Z" fill="#EC673C"/>
<path d="M485.644 757.901C484.183 763.072 495.832 770.514 503.471 774.763C505.921 776.126 508.692 773.876 507.973 771.173L506.131 764.244C505.805 763.016 506.226 761.704 507.211 760.881L511.893 756.971C514.2 755.045 512.946 751.442 509.947 751.512C500.723 751.726 487.058 752.898 485.644 757.901Z" fill="#EC673C"/>
<path d="M490.124 792.192C492.449 796.995 506.207 794.789 514.803 792.877C517.547 792.266 518.114 788.737 515.764 787.201L509.861 783.342C508.781 782.637 508.217 781.358 508.42 780.077L509.352 774.182C509.822 771.212 506.488 769.322 504.275 771.352C497.44 777.621 487.874 787.548 490.124 792.192Z" fill="#EC673C"/>
<path d="M520.262 813.935C525.527 814.89 532.09 802.563 535.763 794.545C536.937 791.98 534.464 789.447 531.812 790.428L525.1 792.91C523.887 793.359 522.53 793.063 521.629 792.153L517.431 787.914C515.334 785.796 511.812 787.373 512.101 790.345C512.995 799.51 515.169 813.011 520.262 813.935Z" fill="#EC673C"/>
<path d="M545.545 813.575C550.669 811.94 550.702 798.051 550.194 789.291C550.031 786.48 546.666 785.396 544.78 787.494L539.936 792.879C539.08 793.831 537.756 794.203 536.542 793.832L530.748 792.063C527.899 791.193 525.548 794.24 527.208 796.719C532.312 804.339 540.589 815.156 545.545 813.575Z" fill="#EC673C"/>
<path d="M566.762 797.599C570.463 793.682 563.711 781.625 558.986 774.277C557.468 771.916 553.985 772.604 553.354 775.339L551.723 782.401C551.438 783.639 550.463 784.6 549.22 784.87L543.236 786.17C540.313 786.805 539.751 790.59 542.423 791.931C550.628 796.048 563.181 801.387 566.762 797.599Z" fill="#EC673C"/>
<path d="M577.189 770.992C577.984 765.685 565.466 759.79 557.339 756.55C554.734 755.511 552.27 758.098 553.328 760.688L556.03 767.299C556.512 768.478 556.259 769.836 555.382 770.779L551.24 775.231C549.191 777.433 550.888 780.85 553.856 780.401C562.992 779.019 576.42 776.126 577.189 770.992Z" fill="#EC673C"/>
<path d="M537.396 725.767C532.197 724.517 524.956 736.465 520.84 744.27C519.525 746.765 521.854 749.433 524.556 748.602L531.385 746.501C532.622 746.12 533.962 746.493 534.811 747.454L538.755 751.918C540.729 754.152 544.336 752.777 544.214 749.793C543.837 740.586 542.425 726.975 537.396 725.767Z" fill="#EC673C"/>
<path d="M510.878 750.655C500.102 760.936 500.193 778.521 511.081 789.934C521.968 801.347 539.53 802.265 550.306 791.985C561.082 781.705 560.992 764.119 550.104 752.706C539.217 741.293 521.655 740.375 510.878 750.655Z" fill="#EC673C"/>
<path d="M518.764 758.921C512.606 764.796 512.91 775.109 519.443 781.957C525.975 788.805 536.263 789.594 542.421 783.719C548.579 777.845 548.275 767.531 541.742 760.684C535.209 753.836 524.922 753.047 518.764 758.921Z" fill="#A65B42"/>
<path d="M944.386 526.16C940.706 522.303 928.213 528.561 920.57 532.978C918.131 534.388 918.664 537.911 921.38 538.66L928.181 540.534C929.43 540.878 930.36 541.925 930.555 543.206L931.446 549.07C931.897 552.034 935.66 552.828 937.161 550.233C941.8 542.211 947.945 529.89 944.386 526.16Z" fill="#EC673C"/>
<path d="M890.08 516.319C885.329 518.855 887.824 532.487 889.918 540.99C890.591 543.72 894.1 544.18 895.575 541.781L899.378 535.6C900.046 534.514 901.278 533.911 902.539 534.054L908.59 534.738C911.553 535.073 913.306 531.656 911.217 529.524C904.801 522.975 894.676 513.867 890.08 516.319Z" fill="#EC673C"/>
<path d="M869.644 542.901C868.183 548.072 879.832 555.514 887.471 559.763C889.921 561.126 892.692 558.876 891.973 556.173L890.131 549.244C889.805 548.016 890.226 546.704 891.211 545.881L895.893 541.971C898.2 540.045 896.946 536.442 893.947 536.512C884.723 536.726 871.058 537.898 869.644 542.901Z" fill="#EC673C"/>
<path d="M874.124 577.192C876.449 581.995 890.207 579.789 898.803 577.877C901.547 577.266 902.114 573.737 899.764 572.201L893.861 568.342C892.781 567.637 892.217 566.358 892.42 565.077L893.352 559.182C893.822 556.212 890.488 554.322 888.275 556.352C881.44 562.621 871.874 572.548 874.124 577.192Z" fill="#EC673C"/>
<path d="M904.262 598.935C909.527 599.89 916.09 587.563 919.763 579.545C920.937 576.98 918.464 574.447 915.812 575.428L909.1 577.91C907.887 578.359 906.53 578.063 905.629 577.153L901.431 572.914C899.334 570.796 895.812 572.373 896.101 575.345C896.995 584.51 899.169 598.011 904.262 598.935Z" fill="#EC673C"/>
<path d="M929.545 598.575C934.669 596.94 934.702 583.051 934.194 574.291C934.031 571.48 930.666 570.396 928.78 572.493L923.936 577.879C923.08 578.831 921.756 579.203 920.542 578.832L914.748 577.063C911.899 576.193 909.548 579.24 911.208 581.719C916.312 589.339 924.589 600.156 929.545 598.575Z" fill="#EC673C"/>
<path d="M950.762 582.598C954.463 578.682 947.711 566.625 942.986 559.277C941.468 556.916 937.985 557.604 937.354 560.339L935.723 567.401C935.438 568.639 934.463 569.6 933.22 569.87L927.236 571.17C924.313 571.805 923.751 575.59 926.423 576.931C934.628 581.048 947.181 586.387 950.762 582.598Z" fill="#EC673C"/>
<path d="M961.189 555.992C961.984 550.685 949.466 544.79 941.339 541.55C938.734 540.511 936.27 543.098 937.328 545.688L940.03 552.299C940.512 553.478 940.259 554.836 939.382 555.779L935.24 560.231C933.191 562.433 934.888 565.85 937.856 565.401C946.992 564.019 960.42 561.126 961.189 555.992Z" fill="#EC673C"/>
<path d="M921.396 510.767C916.197 509.517 908.956 521.465 904.84 529.27C903.525 531.765 905.854 534.433 908.556 533.602L915.385 531.501C916.622 531.12 917.962 531.493 918.811 532.454L922.755 536.918C924.729 539.152 928.336 537.777 928.214 534.793C927.837 525.586 926.425 511.975 921.396 510.767Z" fill="#EC673C"/>
<path d="M894.878 535.655C884.102 545.936 884.193 563.521 895.081 574.934C905.968 586.347 923.53 587.265 934.306 576.985C945.082 566.705 944.992 549.119 934.104 537.706C923.217 526.293 905.655 525.375 894.878 535.655Z" fill="#EC673C"/>
<path d="M902.764 543.921C896.606 549.796 896.91 560.109 903.443 566.957C909.975 573.805 920.263 574.594 926.421 568.719C932.579 562.845 932.275 552.531 925.742 545.684C919.209 538.836 908.922 538.047 902.764 543.921Z" fill="#A65B42"/>
<path d="M336.386 698.16C332.706 694.303 320.213 700.561 312.57 704.978C310.131 706.388 310.664 709.911 313.38 710.66L320.181 712.534C321.43 712.878 322.36 713.925 322.555 715.206L323.446 721.07C323.897 724.034 327.66 724.828 329.161 722.233C333.8 714.211 339.945 701.89 336.386 698.16Z" fill="#EC673C"/>
<path d="M282.08 688.319C277.33 690.855 279.824 704.487 281.918 712.99C282.591 715.72 286.1 716.18 287.575 713.781L291.378 707.6C292.047 706.514 293.278 705.911 294.539 706.054L300.59 706.738C303.553 707.073 305.306 703.656 303.217 701.524C296.801 694.975 286.676 685.867 282.08 688.319Z" fill="#EC673C"/>
<path d="M261.645 714.901C260.183 720.072 271.832 727.514 279.471 731.763C281.921 733.126 284.692 730.876 283.973 728.173L282.132 721.244C281.805 720.016 282.226 718.704 283.211 717.881L287.893 713.971C290.2 712.045 288.946 708.442 285.947 708.512C276.723 708.726 263.058 709.898 261.645 714.901Z" fill="#EC673C"/>
<path d="M266.124 749.192C268.449 753.995 282.207 751.789 290.803 749.877C293.548 749.266 294.114 745.737 291.764 744.201L285.861 740.342C284.781 739.637 284.217 738.358 284.42 737.077L285.352 731.182C285.822 728.212 282.488 726.322 280.276 728.352C273.44 734.621 263.875 744.548 266.124 749.192Z" fill="#EC673C"/>
<path d="M296.262 770.935C301.527 771.89 308.09 759.563 311.763 751.545C312.937 748.98 310.464 746.447 307.812 747.428L301.1 749.91C299.887 750.359 298.53 750.063 297.629 749.153L293.431 744.914C291.334 742.796 287.812 744.373 288.101 747.345C288.995 756.51 291.17 770.011 296.262 770.935Z" fill="#EC673C"/>
<path d="M321.545 770.575C326.669 768.94 326.702 755.051 326.194 746.291C326.031 743.48 322.666 742.396 320.78 744.494L315.936 749.879C315.08 750.831 313.756 751.203 312.542 750.832L306.748 749.063C303.899 748.193 301.548 751.24 303.208 753.719C308.312 761.339 316.589 772.156 321.545 770.575Z" fill="#EC673C"/>
<path d="M342.762 754.599C346.463 750.682 339.711 738.625 334.986 731.277C333.468 728.916 329.985 729.604 329.354 732.339L327.723 739.401C327.438 740.639 326.463 741.6 325.22 741.87L319.236 743.17C316.313 743.805 315.751 747.59 318.423 748.931C326.628 753.048 339.181 758.387 342.762 754.599Z" fill="#EC673C"/>
<path d="M353.189 727.992C353.984 722.685 341.466 716.79 333.339 713.55C330.734 712.511 328.27 715.098 329.328 717.688L332.03 724.299C332.512 725.478 332.259 726.836 331.382 727.779L327.24 732.231C325.191 734.433 326.888 737.85 329.856 737.401C338.992 736.019 352.42 733.126 353.189 727.992Z" fill="#EC673C"/>
<path d="M313.396 682.767C308.197 681.517 300.956 693.465 296.841 701.27C295.525 703.765 297.854 706.433 300.556 705.602L307.385 703.501C308.622 703.12 309.962 703.493 310.811 704.454L314.755 708.918C316.729 711.152 320.336 709.777 320.214 706.793C319.837 697.586 318.425 683.975 313.396 682.767Z" fill="#EC673C"/>
<path d="M286.878 707.655C276.102 717.936 276.193 735.521 287.081 746.934C297.968 758.347 315.53 759.265 326.306 748.985C337.082 738.705 336.992 721.119 326.104 709.706C315.217 698.293 297.655 697.375 286.878 707.655Z" fill="#EC673C"/>
<path d="M294.764 715.921C288.606 721.796 288.91 732.109 295.443 738.957C301.975 745.805 312.263 746.594 318.421 740.719C324.579 734.845 324.275 724.531 317.742 717.684C311.209 710.836 300.922 710.047 294.764 715.921Z" fill="#A65B42"/>
<path d="M914.386 722.16C910.706 718.303 898.213 724.561 890.57 728.978C888.131 730.388 888.664 733.911 891.38 734.66L898.181 736.534C899.43 736.878 900.36 737.925 900.555 739.206L901.446 745.07C901.897 748.034 905.66 748.828 907.161 746.233C911.8 738.211 917.945 725.89 914.386 722.16Z" fill="#EC673C"/>
<path d="M860.08 712.319C855.329 714.855 857.824 728.487 859.918 736.99C860.591 739.72 864.1 740.18 865.575 737.781L869.378 731.6C870.046 730.514 871.278 729.911 872.539 730.054L878.59 730.738C881.553 731.073 883.306 727.656 881.217 725.524C874.801 718.975 864.676 709.867 860.08 712.319Z" fill="#EC673C"/>
<path d="M839.644 738.901C838.183 744.072 849.832 751.514 857.471 755.763C859.921 757.126 862.692 754.876 861.973 752.173L860.131 745.244C859.805 744.016 860.226 742.704 861.211 741.881L865.893 737.971C868.2 736.045 866.946 732.442 863.947 732.512C854.723 732.726 841.058 733.898 839.644 738.901Z" fill="#EC673C"/>
<path d="M844.124 773.192C846.449 777.995 860.207 775.789 868.803 773.877C871.547 773.266 872.114 769.737 869.764 768.201L863.861 764.342C862.781 763.637 862.217 762.358 862.42 761.077L863.352 755.182C863.822 752.212 860.488 750.322 858.275 752.352C851.44 758.621 841.874 768.548 844.124 773.192Z" fill="#EC673C"/>
<path d="M874.262 794.935C879.527 795.89 886.09 783.563 889.763 775.545C890.937 772.98 888.464 770.447 885.812 771.428L879.1 773.91C877.887 774.359 876.53 774.063 875.629 773.153L871.431 768.914C869.334 766.796 865.812 768.373 866.101 771.345C866.995 780.51 869.169 794.011 874.262 794.935Z" fill="#EC673C"/>
<path d="M899.545 794.575C904.669 792.94 904.702 779.051 904.194 770.291C904.031 767.48 900.666 766.396 898.78 768.494L893.936 773.879C893.08 774.831 891.756 775.203 890.542 774.832L884.748 773.063C881.899 772.193 879.548 775.24 881.208 777.719C886.312 785.339 894.589 796.156 899.545 794.575Z" fill="#EC673C"/>
<path d="M920.762 778.599C924.463 774.682 917.711 762.625 912.986 755.277C911.468 752.916 907.985 753.604 907.354 756.339L905.723 763.401C905.438 764.639 904.463 765.6 903.22 765.87L897.236 767.17C894.313 767.805 893.751 771.59 896.423 772.931C904.628 777.048 917.181 782.387 920.762 778.599Z" fill="#EC673C"/>
<path d="M931.189 751.992C931.984 746.685 919.466 740.79 911.339 737.55C908.734 736.511 906.27 739.098 907.328 741.688L910.03 748.299C910.512 749.478 910.259 750.836 909.382 751.779L905.24 756.231C903.191 758.433 904.888 761.85 907.856 761.401C916.992 760.019 930.42 757.126 931.189 751.992Z" fill="#EC673C"/>
<path d="M891.396 706.767C886.197 705.517 878.956 717.465 874.84 725.27C873.525 727.765 875.854 730.433 878.556 729.602L885.385 727.501C886.622 727.12 887.962 727.493 888.811 728.454L892.755 732.918C894.729 735.152 898.336 733.777 898.214 730.793C897.837 721.586 896.425 707.975 891.396 706.767Z" fill="#EC673C"/>
<path d="M864.878 731.655C854.102 741.936 854.193 759.521 865.081 770.934C875.968 782.347 893.53 783.265 904.306 772.985C915.082 762.705 914.992 745.119 904.104 733.706C893.217 722.293 875.655 721.375 864.878 731.655Z" fill="#EC673C"/>
<path d="M872.764 739.921C866.606 745.796 866.91 756.109 873.443 762.957C879.975 769.805 890.263 770.594 896.421 764.719C902.579 758.845 902.275 748.531 895.742 741.684C889.209 734.836 878.922 734.047 872.764 739.921Z" fill="#A65B42"/>
<path d="M1071.39 634.16C1067.71 630.303 1055.21 636.561 1047.57 640.978C1045.13 642.388 1045.66 645.911 1048.38 646.66L1055.18 648.534C1056.43 648.878 1057.36 649.925 1057.55 651.206L1058.45 657.07C1058.9 660.034 1062.66 660.828 1064.16 658.233C1068.8 650.211 1074.94 637.89 1071.39 634.16Z" fill="#EC673C"/>
<path d="M1017.08 624.319C1012.33 626.855 1014.82 640.487 1016.92 648.99C1017.59 651.72 1021.1 652.18 1022.58 649.781L1026.38 643.6C1027.05 642.514 1028.28 641.911 1029.54 642.054L1035.59 642.738C1038.55 643.073 1040.31 639.656 1038.22 637.524C1031.8 630.975 1021.68 621.867 1017.08 624.319Z" fill="#EC673C"/>
<path d="M996.645 650.901C995.183 656.072 1006.83 663.514 1014.47 667.763C1016.92 669.126 1019.69 666.876 1018.97 664.173L1017.13 657.244C1016.8 656.016 1017.23 654.704 1018.21 653.881L1022.89 649.971C1025.2 648.045 1023.95 644.442 1020.95 644.512C1011.72 644.726 998.058 645.898 996.645 650.901Z" fill="#EC673C"/>
<path d="M1001.12 685.192C1003.45 689.995 1017.21 687.789 1025.8 685.877C1028.55 685.266 1029.11 681.737 1026.76 680.201L1020.86 676.342C1019.78 675.637 1019.22 674.358 1019.42 673.077L1020.35 667.182C1020.82 664.212 1017.49 662.322 1015.28 664.352C1008.44 670.621 998.875 680.548 1001.12 685.192Z" fill="#EC673C"/>
<path d="M1031.26 706.935C1036.53 707.89 1043.09 695.563 1046.76 687.545C1047.94 684.98 1045.46 682.447 1042.81 683.428L1036.1 685.91C1034.89 686.359 1033.53 686.063 1032.63 685.153L1028.43 680.914C1026.33 678.796 1022.81 680.373 1023.1 683.345C1023.99 692.51 1026.17 706.011 1031.26 706.935Z" fill="#EC673C"/>
<path d="M1056.55 706.575C1061.67 704.94 1061.7 691.051 1061.19 682.291C1061.03 679.48 1057.67 678.396 1055.78 680.493L1050.94 685.879C1050.08 686.831 1048.76 687.203 1047.54 686.832L1041.75 685.063C1038.9 684.193 1036.55 687.24 1038.21 689.719C1043.31 697.339 1051.59 708.156 1056.55 706.575Z" fill="#EC673C"/>
<path d="M1077.76 690.598C1081.46 686.682 1074.71 674.625 1069.99 667.277C1068.47 664.916 1064.99 665.604 1064.35 668.339L1062.72 675.401C1062.44 676.639 1061.46 677.6 1060.22 677.87L1054.24 679.17C1051.31 679.805 1050.75 683.59 1053.42 684.931C1061.63 689.048 1074.18 694.387 1077.76 690.598Z" fill="#EC673C"/>
<path d="M1088.19 663.992C1088.98 658.685 1076.47 652.79 1068.34 649.55C1065.73 648.511 1063.27 651.098 1064.33 653.688L1067.03 660.299C1067.51 661.478 1067.26 662.836 1066.38 663.779L1062.24 668.231C1060.19 670.433 1061.89 673.85 1064.86 673.401C1073.99 672.019 1087.42 669.126 1088.19 663.992Z" fill="#EC673C"/>
<path d="M1048.4 618.767C1043.2 617.517 1035.96 629.465 1031.84 637.27C1030.52 639.765 1032.85 642.433 1035.56 641.602L1042.39 639.501C1043.62 639.12 1044.96 639.493 1045.81 640.454L1049.76 644.918C1051.73 647.152 1055.34 645.777 1055.21 642.793C1054.84 633.586 1053.43 619.975 1048.4 618.767Z" fill="#EC673C"/>
<path d="M1021.88 643.655C1011.1 653.936 1011.19 671.521 1022.08 682.934C1032.97 694.347 1050.53 695.265 1061.31 684.985C1072.08 674.705 1071.99 657.119 1061.1 645.706C1050.22 634.293 1032.65 633.375 1021.88 643.655Z" fill="#EC673C"/>
<path d="M1029.76 651.921C1023.61 657.796 1023.91 668.109 1030.44 674.957C1036.98 681.805 1047.26 682.594 1053.42 676.719C1059.58 670.845 1059.27 660.531 1052.74 653.684C1046.21 646.836 1035.92 646.047 1029.76 651.921Z" fill="#A65B42"/>
<path d="M730.386 588.16C726.706 584.303 714.213 590.561 706.57 594.978C704.131 596.388 704.664 599.911 707.38 600.66L714.181 602.534C715.43 602.878 716.36 603.925 716.555 605.206L717.446 611.07C717.897 614.034 721.66 614.828 723.161 612.233C727.8 604.211 733.945 591.89 730.386 588.16Z" fill="#EC673C"/>
<path d="M676.08 578.319C671.329 580.855 673.824 594.487 675.918 602.99C676.591 605.72 680.1 606.18 681.575 603.781L685.378 597.6C686.046 596.514 687.278 595.911 688.539 596.054L694.59 596.738C697.553 597.073 699.306 593.656 697.217 591.524C690.801 584.975 680.676 575.867 676.08 578.319Z" fill="#EC673C"/>
<path d="M655.644 604.901C654.183 610.072 665.832 617.514 673.471 621.763C675.921 623.126 678.692 620.876 677.973 618.173L676.131 611.244C675.805 610.016 676.226 608.704 677.211 607.881L681.893 603.971C684.2 602.045 682.946 598.442 679.947 598.512C670.723 598.726 657.058 599.898 655.644 604.901Z" fill="#EC673C"/>
<path d="M660.124 639.192C662.449 643.995 676.207 641.789 684.803 639.877C687.547 639.266 688.114 635.737 685.764 634.201L679.861 630.342C678.781 629.637 678.217 628.358 678.42 627.077L679.352 621.182C679.822 618.212 676.488 616.322 674.275 618.352C667.44 624.621 657.874 634.548 660.124 639.192Z" fill="#EC673C"/>
<path d="M690.262 660.935C695.527 661.89 702.09 649.563 705.763 641.545C706.937 638.98 704.464 636.447 701.812 637.428L695.1 639.91C693.887 640.359 692.53 640.063 691.629 639.153L687.431 634.914C685.334 632.796 681.812 634.373 682.101 637.345C682.995 646.51 685.169 660.011 690.262 660.935Z" fill="#EC673C"/>
<path d="M715.545 660.575C720.669 658.94 720.702 645.051 720.194 636.291C720.031 633.48 716.666 632.396 714.78 634.493L709.936 639.879C709.08 640.831 707.756 641.203 706.542 640.832L700.748 639.063C697.899 638.193 695.548 641.24 697.208 643.719C702.312 651.339 710.589 662.156 715.545 660.575Z" fill="#EC673C"/>
<path d="M736.762 644.598C740.463 640.682 733.711 628.625 728.986 621.277C727.468 618.916 723.985 619.604 723.354 622.339L721.723 629.401C721.438 630.639 720.463 631.6 719.22 631.87L713.236 633.17C710.313 633.805 709.751 637.59 712.423 638.931C720.628 643.048 733.181 648.387 736.762 644.598Z" fill="#EC673C"/>
<path d="M747.189 617.992C747.984 612.685 735.466 606.79 727.339 603.55C724.734 602.511 722.27 605.098 723.328 607.688L726.03 614.299C726.512 615.478 726.259 616.836 725.382 617.779L721.24 622.231C719.191 624.433 720.888 627.85 723.856 627.401C732.992 626.019 746.42 623.126 747.189 617.992Z" fill="#EC673C"/>
<path d="M707.396 572.767C702.197 571.517 694.956 583.465 690.84 591.27C689.525 593.765 691.854 596.433 694.556 595.602L701.385 593.501C702.622 593.12 703.962 593.493 704.811 594.454L708.755 598.918C710.729 601.152 714.336 599.777 714.214 596.793C713.837 587.586 712.425 573.975 707.396 572.767Z" fill="#EC673C"/>
<path d="M680.878 597.655C670.102 607.936 670.193 625.521 681.081 636.934C691.968 648.347 709.53 649.265 720.306 638.985C731.082 628.705 730.992 611.119 720.104 599.706C709.217 588.293 691.655 587.375 680.878 597.655Z" fill="#EC673C"/>
<path d="M688.764 605.921C682.606 611.796 682.91 622.109 689.443 628.957C695.975 635.805 706.263 636.594 712.421 630.719C718.579 624.845 718.275 614.531 711.742 607.684C705.209 600.836 694.922 600.047 688.764 605.921Z" fill="#A65B42"/>
<g filter="url(#filter0_b_0_1)">
<path d="M1255 28.5C1255 73.5112 1216.5 110 1169 110C1121.5 110 1083 73.5112 1083 28.5C1083 -16.5112 1121.5 -53 1169 -53C1216.5 -53 1255 -16.5112 1255 28.5Z" fill="#FFDF61"/>
</g>
<g filter="url(#filter1_b_0_1)">
<path fill-rule="evenodd" clip-rule="evenodd" d="M1261 28.5C1261 77.1247 1219.5 116 1169 116C1118.5 116 1077 77.1247 1077 28.5C1077 -20.1247 1118.5 -59 1169 -59C1219.5 -59 1261 -20.1247 1261 28.5ZM1169 110C1216.5 110 1255 73.5112 1255 28.5C1255 -16.5112 1216.5 -53 1169 -53C1121.5 -53 1083 -16.5112 1083 28.5C1083 73.5112 1121.5 110 1169 110Z" fill="#FFD329" fill-opacity="0.32"/>
</g>
</g>
<defs>
<filter id="filter0_b_0_1" x="1079" y="-57" width="180" height="171" filterUnits="userSpaceOnUse" color-interpolation-filters="sRGB">
<feFlood flood-opacity="0" result="BackgroundImageFix"/>
<feGaussianBlur in="BackgroundImageFix" stdDeviation="2"/>
<feComposite in2="SourceAlpha" operator="in" result="effect1_backgroundBlur_0_1"/>
<feBlend mode="normal" in="SourceGraphic" in2="effect1_backgroundBlur_0_1" result="shape"/>
</filter>
<filter id="filter1_b_0_1" x="1073" y="-63" width="192" height="183" filterUnits="userSpaceOnUse" color-interpolation-filters="sRGB">
<feFlood flood-opacity="0" result="BackgroundImageFix"/>
<feGaussianBlur in="BackgroundImageFix" stdDeviation="2"/>
<feComposite in2="SourceAlpha" operator="in" result="effect1_backgroundBlur_0_1"/>
<feBlend mode="normal" in="SourceGraphic" in2="effect1_backgroundBlur_0_1" result="shape"/>
</filter>
<clipPath id="clip0_0_1">
<rect width="1209" height="849" fill="white"/>
</clipPath>
</defs>
</svg>
