<svg version="1.1" viewBox="0.0 0.0 331.755905511811 328.1706036745407" fill="none" stroke="none" stroke-linecap="square" stroke-miterlimit="10" xmlns:xlink="http://www.w3.org/1999/xlink" xmlns="http://www.w3.org/2000/svg"><clipPath id="p.0"><path d="m0 0l331.75592 0l0 328.1706l-331.75592 0l0 -328.1706z" clip-rule="nonzero"/></clipPath><g clip-path="url(#p.0)"><path fill="#000000" fill-opacity="0.0" d="m0 0l331.75592 0l0 328.1706l-331.75592 0z" fill-rule="evenodd"/><defs><radialGradient id="p.1" gradientUnits="userSpaceOnUse" gradientTransform="matrix(15.170930483187965 0.0 0.0 15.170930483187965 0.0 0.0)" spreadMethod="pad" cx="10.815337947748699" cy="10.63887116100167" fx="10.815337947748699" fy="10.63887116100167" r="15.170930862426758"><stop offset="0.0" stop-color="#ed7954"/><stop offset="0.56" stop-color="#ed7954" stop-opacity="0.0"/><stop offset="0.56000006" stop-color="#ffffff" stop-opacity="0.0"/><stop offset="1.0" stop-color="#ffffff" stop-opacity="0.0"/></radialGradient></defs><path fill="url(#p.1)" d="m0 161.40158l0 0c0 -89.13963 73.460556 -161.40158 164.07874 -161.40158l0 0c43.516388 0 85.25046 17.00476 116.02121 47.273426c30.770721 30.268665 48.057526 71.32179 48.057526 114.12816l0 0c0 89.13962 -73.46054 161.40158 -164.07874 161.40158l0 0c-90.61818 0 -164.07874 -72.26196 -164.07874 -161.40158z" fill-rule="evenodd"/></g></svg>